<svg xmlns="http://www.w3.org/2000/svg" xmlns:xlink="http://www.w3.org/1999/xlink" viewBox="0 0 377.15 197.01" xmlns:v="https://vecta.io/nano"><style><![CDATA[.C{fill-rule:evenodd}]]></style><path d="M74.86 119.43h-6.17l-.73 1.7c-.24.57-.36 1.04-.36 1.4 0 .49.2.85.59 1.08.23.14.8.24 1.71.31v.48h-5.81v-.48a2.61 2.61 0 0 0 1.55-.77c.4-.43.9-1.31 1.5-2.64l6.25-13.95h.25l6.3 14.33c.6 1.36 1.09 2.21 1.48 2.56.29.27.71.42 1.24.46v.48H74.2v-.48h.35c.68 0 1.16-.09 1.43-.28a.69.69 0 0 0 .28-.59 1.72 1.72 0 0 0-.08-.48c-.02-.08-.15-.4-.39-.97l-.93-2.16h0zm-.44-.96l-2.6-6.02-2.68 6.02h5.28 0z" class="C"/><path d="M93.36 112.35v9.44c0 .92.09 1.5.26 1.73.17.22.52.37 1.04.43v.46h-4.91v-1.61c-.58.69-1.15 1.19-1.73 1.51-.58.31-1.22.46-1.93.46-.68 0-1.29-.21-1.82-.62-.52-.42-.88-.91-1.06-1.47s-.27-1.53-.27-2.93v-4.78c0-.91-.09-1.48-.26-1.7-.16-.22-.51-.37-1.04-.44v-.48h4.91v8.24c0 .86.04 1.41.12 1.66.09.25.21.44.39.57s.39.19.62.19c.31 0 .59-.08.84-.24.34-.22.76-.67 1.24-1.35v-6.45c0-.91-.09-1.48-.26-1.7-.16-.22-.51-.37-1.04-.44v-.48h4.9 0zm9.73-.33l.19 4.11h-.44c-.52-1.22-1.07-2.05-1.64-2.5-.56-.45-1.12-.67-1.68-.67-.35 0-.65.12-.9.36-.25.23-.37.5-.37.81 0 .23.09.46.26.67.27.35 1.04.96 2.31 1.82 1.26.85 2.09 1.58 2.49 2.18.4.59.61 1.26.61 2 0 .67-.17 1.33-.5 1.97a3.5 3.5 0 0 1-1.42 1.48c-.61.34-1.29.52-2.02.52-.58 0-1.35-.18-2.31-.54-.26-.09-.43-.14-.53-.14-.28 0-.52.21-.71.64H96l-.21-4.33h.44c.39 1.13.92 1.98 1.58 2.55.68.57 1.32.85 1.92.85.41 0 .75-.12 1.01-.37a1.24 1.24 0 0 0 .4-.93c0-.41-.13-.77-.39-1.07s-.83-.76-1.73-1.37c-1.31-.91-2.17-1.61-2.55-2.09-.57-.71-.85-1.48-.85-2.33 0-.93.32-1.77.95-2.51.64-.76 1.57-1.13 2.78-1.13a4.06 4.06 0 0 1 1.9.48c.23.13.42.19.57.19.16 0 .28-.03.37-.09.09-.07.25-.25.45-.55h.45v-.01zm6.39-4.08v4.41h2.86v1.28h-2.86v7.44c0 .7.03 1.15.09 1.35.07.2.18.36.35.49.16.12.31.18.45.18.56 0 1.09-.43 1.59-1.28l.39.28c-.7 1.65-1.83 2.47-3.39 2.47-.76 0-1.41-.21-1.95-.63-.52-.43-.86-.91-1.01-1.43-.09-.29-.13-1.08-.13-2.37v-6.51h-1.57v-.45c1.08-.77 2-1.57 2.76-2.41s1.43-1.78 2-2.82h.42 0zm8.74 4.41v2.73c.8-1.25 1.5-2.07 2.1-2.48s1.18-.62 1.74-.62c.48 0 .86.15 1.15.45.29.29.44.71.44 1.25 0 .58-.14 1.02-.43 1.34-.27.32-.61.48-1 .48a1.72 1.72 0 0 1-1.19-.44l-.59-.49c-.09-.05-.18-.08-.3-.08-.25 0-.49.1-.71.29-.35.29-.62.71-.8 1.25-.28.83-.41 1.75-.41 2.76v2.77l.01.72c0 .49.03.8.09.94.1.23.25.4.45.52.21.1.55.17 1.03.19v.46h-6.51v-.46c.52-.04.88-.19 1.06-.43.19-.25.28-.9.28-1.95v-6.66c0-.69-.03-1.12-.1-1.31-.09-.24-.21-.42-.37-.53s-.45-.19-.86-.23v-.48h4.92v.01z"/><path d="M130.27 122.62c-1.47 1.3-2.79 1.95-3.96 1.95-.69 0-1.26-.22-1.71-.67-.46-.46-.68-1.02-.68-1.7 0-.92.4-1.74 1.19-2.48s2.51-1.72 5.17-2.94v-1.21c0-.91-.05-1.48-.16-1.71-.09-.24-.28-.45-.55-.62-.28-.18-.59-.27-.93-.27-.56 0-1.02.12-1.38.37-.22.16-.33.34-.33.54 0 .18.12.4.36.67.33.37.49.73.49 1.07 0 .42-.16.78-.48 1.08-.31.29-.72.44-1.22.44-.54 0-1-.16-1.37-.49-.36-.33-.54-.71-.54-1.15 0-.62.25-1.21.73-1.77.49-.57 1.17-1 2.05-1.3s1.79-.45 2.73-.45c1.14 0 2.04.25 2.71.74.67.48 1.1 1.01 1.3 1.57.12.36.18 1.19.18 2.49v4.68c0 .55.02.9.06 1.04s.11.24.19.31.18.1.3.1c.22 0 .45-.16.68-.48l.39.31c-.43.64-.88 1.1-1.34 1.39-.46.28-.98.43-1.56.43-.69 0-1.22-.16-1.61-.48-.39-.31-.62-.8-.71-1.46h0zm0-.94v-4.04c-1.04.61-1.81 1.26-2.32 1.96-.33.46-.5.93-.5 1.41 0 .39.14.74.43 1.04.21.23.51.35.9.35.42 0 .92-.24 1.49-.72h0z" class="C"/><path d="M140.74 106.92v14.98c0 .85.1 1.4.3 1.64.2.23.58.37 1.16.4v.46h-6.51v-.46c.53-.02.93-.17 1.19-.46.17-.2.26-.72.26-1.57v-12.48c0-.84-.1-1.38-.3-1.61-.2-.24-.58-.38-1.15-.41v-.48h5.05v-.01z"/><path d="M146.26 106.51a1.93 1.93 0 0 1 1.42.59c.39.39.58.86.58 1.41s-.2 1.02-.59 1.4c-.39.39-.86.58-1.41.58s-1.02-.19-1.41-.58a1.91 1.91 0 0 1-.58-1.4c0-.55.19-1.02.58-1.41s.86-.59 1.41-.59h0zm1.81 5.84v9.55c0 .85.1 1.4.3 1.64.2.23.58.37 1.16.4v.46h-6.51v-.46c.53-.02.93-.17 1.19-.46.17-.2.26-.72.26-1.57v-7.04c0-.85-.1-1.39-.3-1.62-.2-.24-.58-.38-1.15-.41v-.48h5.05v-.01zm8.49 10.27c-1.47 1.3-2.79 1.95-3.96 1.95-.69 0-1.26-.22-1.71-.67-.46-.46-.68-1.02-.68-1.7 0-.92.39-1.74 1.19-2.48.79-.74 2.51-1.72 5.17-2.94v-1.21c0-.91-.05-1.48-.15-1.71-.09-.24-.28-.45-.55-.62a1.66 1.66 0 0 0-.93-.27c-.56 0-1.02.12-1.38.37-.22.16-.33.34-.33.54 0 .18.12.4.36.67.33.37.49.73.49 1.07 0 .42-.16.78-.48 1.08-.31.29-.72.44-1.22.44-.54 0-1-.16-1.37-.49-.36-.33-.54-.71-.54-1.15 0-.62.25-1.21.74-1.77.49-.57 1.17-1 2.05-1.3s1.79-.45 2.73-.45c1.14 0 2.04.25 2.71.74.67.48 1.1 1.01 1.3 1.57.12.36.18 1.19.18 2.49v4.68c0 .55.02.9.06 1.04s.11.24.19.31c.09.07.18.1.3.1.22 0 .45-.16.68-.48l.39.31c-.43.64-.88 1.1-1.34 1.39-.46.28-.98.43-1.56.43-.69 0-1.22-.16-1.61-.48-.41-.31-.65-.8-.73-1.46h0zm0-.94v-4.04c-1.04.61-1.81 1.26-2.32 1.96-.33.46-.5.93-.5 1.41 0 .39.14.74.43 1.04.21.23.52.35.9.35.42 0 .92-.24 1.49-.72h0z" class="C"/><use xlink:href="#B"/><path d="M198.81 106.52v6.16h-.48c-.58-1.68-1.44-2.96-2.59-3.84s-2.41-1.31-3.78-1.31c-1.31 0-2.39.37-3.26 1.11-.87.73-1.48 1.75-1.84 3.07a15.27 15.27 0 0 0-.54 4.05c0 1.68.2 3.14.59 4.41.4 1.26 1.03 2.19 1.91 2.79.88.59 1.93.89 3.15.89.42 0 .85-.04 1.29-.13.45-.09.9-.23 1.37-.4v-3.63c0-.69-.05-1.13-.14-1.33-.09-.21-.29-.39-.59-.55-.29-.16-.65-.24-1.07-.24h-.45v-.48h8.5v.48c-.64.04-1.1.13-1.35.27-.25.13-.44.35-.58.66-.08.16-.12.56-.12 1.2v3.63c-1.12.5-2.28.87-3.49 1.12-1.2.26-2.45.39-3.75.39-1.66 0-3.04-.22-4.14-.67-1.09-.46-2.06-1.05-2.9-1.78-.83-.74-1.49-1.57-1.96-2.49-.6-1.19-.9-2.51-.9-3.98 0-2.63.92-4.85 2.77-6.66s4.17-2.72 6.97-2.72c.87 0 1.65.07 2.35.21.38.07.99.27 1.83.59.85.32 1.35.48 1.51.48.24 0 .46-.09.67-.26.21-.18.39-.52.57-1.01h.45v-.03z"/><path d="M207.17 111.99c1.05 0 2.02.27 2.93.81.9.54 1.59 1.31 2.05 2.31.47 1 .71 2.09.71 3.27 0 1.71-.43 3.14-1.3 4.29-1.05 1.39-2.5 2.09-4.34 2.09-1.81 0-3.21-.63-4.19-1.91-.98-1.27-1.47-2.74-1.47-4.42 0-1.73.5-3.23 1.5-4.51.99-1.28 2.37-1.93 4.11-1.93h0zm.06.91c-.44 0-.82.17-1.13.5s-.52.98-.62 1.96c-.09.97-.14 2.32-.14 4.06 0 .92.06 1.78.18 2.58.09.61.3 1.07.61 1.39s.66.48 1.06.48a1.49 1.49 0 0 0 .97-.32c.33-.29.56-.7.67-1.22.17-.82.26-2.47.26-4.95 0-1.46-.08-2.46-.25-3-.16-.55-.4-.95-.72-1.2-.24-.19-.53-.28-.89-.28h0z" class="C"/><path d="M218.54 124.76l-4.06-9.35c-.49-1.12-.87-1.84-1.15-2.14-.2-.22-.49-.37-.88-.45v-.48h6.41v.48c-.4 0-.68.07-.82.22-.21.19-.31.41-.31.67 0 .32.19.91.57 1.79l1.98 4.53 1.59-3.91c.46-1.12.68-1.91.68-2.37 0-.27-.1-.48-.3-.64-.19-.17-.53-.27-1.02-.29v-.48h3.95v.48c-.38.05-.69.2-.93.43s-.6.92-1.08 2.05l-4.02 9.46h-.61 0z"/><path d="M234.67 117.95h-6.61c.08 1.6.5 2.86 1.28 3.79.59.71 1.31 1.07 2.14 1.07a2.44 2.44 0 0 0 1.41-.43c.42-.29.87-.81 1.35-1.56l.44.29c-.65 1.33-1.38 2.28-2.17 2.84-.79.55-1.71.82-2.75.82-1.79 0-3.14-.69-4.06-2.06-.74-1.11-1.11-2.48-1.11-4.12 0-2.01.54-3.61 1.62-4.79 1.09-1.2 2.37-1.79 3.83-1.79 1.22 0 2.28.5 3.17 1.51.9.97 1.39 2.46 1.46 4.43h0zm-3.17-.87c0-1.38-.08-2.33-.23-2.85s-.38-.91-.7-1.17c-.18-.15-.42-.23-.72-.23-.45 0-.81.22-1.1.66-.51.77-.76 1.81-.76 3.15v.45h3.51v-.01z" class="C"/><path d="M240.38 112.35v2.73c.8-1.25 1.5-2.07 2.1-2.48s1.18-.62 1.74-.62c.48 0 .86.15 1.15.45.29.29.44.71.44 1.25 0 .58-.14 1.02-.42 1.34s-.61.48-1.01.48a1.72 1.72 0 0 1-1.19-.44l-.59-.49a.61.61 0 0 0-.3-.08c-.25 0-.49.1-.71.29-.35.29-.62.71-.8 1.25-.28.83-.41 1.75-.41 2.76v2.77l.01.72c0 .49.03.8.09.94.1.23.25.4.45.52.21.1.55.17 1.03.19v.46h-6.51v-.46c.52-.04.88-.19 1.06-.43.19-.25.28-.9.28-1.95v-6.66c0-.69-.04-1.12-.1-1.31-.09-.24-.21-.42-.37-.53s-.45-.19-.86-.23v-.48h4.92v.01z"/><use xlink:href="#B" x="84.53"/><path d="M265.46 112.35v1.59c.66-.72 1.27-1.22 1.83-1.51.57-.29 1.19-.44 1.86-.44.77 0 1.42.18 1.95.54.52.36.93.91 1.21 1.65.69-.77 1.34-1.33 1.97-1.67a4.08 4.08 0 0 1 1.99-.52c.83 0 1.5.19 1.99.58a2.91 2.91 0 0 1 1.03 1.46c.2.59.3 1.52.3 2.81v4.94c0 .93.08 1.5.25 1.73.17.22.52.37 1.06.44v.46h-6.23v-.46c.49-.04.85-.23 1.08-.57.15-.23.23-.76.23-1.6v-5.18c0-1.07-.04-1.76-.13-2.05s-.22-.51-.41-.64c-.18-.14-.4-.22-.64-.22-.37 0-.74.14-1.12.41s-.76.67-1.15 1.21v6.47c0 .87.07 1.41.22 1.64.2.32.58.49 1.13.53v.46h-6.24v-.46c.33-.02.6-.1.79-.25.2-.15.33-.33.39-.54.07-.21.1-.67.1-1.38v-5.18c0-1.09-.04-1.78-.13-2.05s-.23-.49-.44-.64c-.2-.15-.41-.23-.64-.23-.34 0-.66.09-.94.27-.4.27-.83.72-1.29 1.37v6.47c0 .85.08 1.41.25 1.69.17.27.52.43 1.06.48v.46h-6.21v-.46c.51-.05.87-.21 1.08-.49.15-.19.22-.75.22-1.68v-6.81c0-.91-.09-1.48-.26-1.7-.16-.22-.51-.37-1.04-.44v-.48h4.88v-.01z"/><path d="M291.61 117.95H285c.08 1.6.5 2.86 1.28 3.79.59.71 1.31 1.07 2.14 1.07a2.39 2.39 0 0 0 1.4-.43c.42-.29.87-.81 1.35-1.56l.44.29c-.65 1.33-1.38 2.28-2.17 2.84-.79.55-1.71.82-2.75.82-1.79 0-3.14-.69-4.06-2.06-.74-1.11-1.11-2.48-1.11-4.12 0-2.01.54-3.61 1.62-4.79 1.09-1.2 2.37-1.79 3.83-1.79 1.22 0 2.28.5 3.17 1.51.91.97 1.4 2.46 1.47 4.43h0zm-3.17-.87c0-1.38-.08-2.33-.23-2.85s-.38-.91-.7-1.17c-.18-.15-.42-.23-.72-.23-.45 0-.81.22-1.1.66-.51.77-.76 1.81-.76 3.15v.45h3.51v-.01z" class="C"/><use xlink:href="#B" x="130.01"/><path d="M310.21 107.94v4.41h2.86v1.28h-2.86v7.44c0 .7.03 1.15.09 1.35.07.2.19.36.35.49.16.12.31.18.45.18.56 0 1.09-.43 1.58-1.28l.39.28c-.7 1.65-1.83 2.47-3.39 2.47-.77 0-1.41-.21-1.95-.63-.52-.43-.86-.91-1.01-1.43-.09-.29-.13-1.08-.13-2.37v-6.51h-1.57v-.45c1.08-.77 2-1.57 2.76-2.41a14.34 14.34 0 0 0 2-2.82h.43 0zm-142.5-32.2c-.08.14-.19.26-.33.33m3.35-23.93a.63.63 0 0 0 .63-.64c0-.35-.28-.64-.63-.64s-.63.29-.63.64.28.64.63.64h0zm29.25-26.66v-.01h-22.74v.01h0l.02 18.37c0 1.77.75 3.32 1.79 3.8l8.75 5.23c.19.22.48.36.8.36a1.05 1.05 0 0 0 .71-.28l8.88-5.31c1.04-.48 1.79-2.03 1.79-3.8V25.48h0 0zm-15.19 5.31h-1.97v-4.7h1.97v4.7h0zm-1.43 1.64l.28-.29-.17-.32.37.04.22-.39.22.38.37-.03-.17.32.28.29-.36.07v.4l-.34-.25-.34.25v-.4l-.36-.07h0zm-5.49 5.85v-4.46h2.39v4.46h-2.39 0zm.4-6.46l.37.04.22-.39.22.38.37-.03-.17.32.28.29-.36.07v.4l-.34-.25-.34.25v-.4l-.36-.07.28-.29-.17-.32h0zm2.7 4.54l.37.04.22-.39.22.38.37-.03-.17.32.28.29-.36.07v.4l-.34-.25-.34.25v-.4l-.36-.07.28-.29-.17-.32h0zm1.58-3.59c-.02-.12-.17-.15-.24-.15-.21 0-.3.35-.48.36-.13.01-.23.02-.23-.14 0-.12.27-.21.38-.31-1.47 0-1.5.67-1.73.67-.39 0 .32-.71.53-.92-.3-.05-.47-.42-.8-.6.15-.22.24-.13.43.03 0-.15.12-.34.46-.34.66 0 .47.64.58.64s-.01-.64.43-.64c.65 0 1.47 1.68.73 1.68-.31 0-.05-.24-.06-.28h0zm-1.69-4.92l.28-.29-.17-.32.37.04.22-.39.22.38.37-.03-.17.32.28.29-.36.07v.4l-.34-.25-.34.25v-.4l-.36-.07h0zm-.6-1.76v4.7h-2.39v-4.7h2.39 0zm4.53 24.27l-5.44-3.25c-.91-.62-1.36-1.71-1.48-3.03v-5.17h6.92v11.45h0zm-1.96-12.08v-4.46h1.97v4.46h-1.97 0zm8.97 12.45l-2.51 1.5h-.04c-.18.14-.41.23-.66.23-.26 0-.49-.09-.67-.24l-2.5-1.49V38.91h6.39v11.82h-.01zm0-12.45h-6.39V26.09h6.39v12.19h0zm7.54 5.79c-.12 1.32-.57 2.41-1.48 3.03l-5.44 3.25V38.91h6.92v5.16h0zm0-5.79h-6.92V26.09h6.92v12.19h0zm-14.91 4.83c-.03-.07-.87.28-.63.25.02-.25.49-.75.69-.93-.04-.29-.41-.03-.8.18 1.29-1.86.46-1.09-.26-.96 1.16-1.25.85-1.22 0-.84.67-.53.81-1.16.71-1.35-.63.84-1.21.71-1.21 1.48 0 .51-.19 1.35-.45 1.63-.34.37-.08-1.37-.97-1.37-.28 0-.95-.02-1.16.32.18 0 .45.46.45.64s.17.69-.14.69c-.3 0-.66-.64-.66-.94 0-.31-.02-.23-.02-.67 0-.73-1.2-1.77-1.68-1.77 0 .51.67.63.67 1.29-.28 0-.69-.53-.69-.2s.43.39.43.67c0 .29-.49-.1-.49.2 0 .27.27.22.33.49-.2-.06-.37-.03-.41.07-.03.09.06.2.21.29-.07.06-.13.22-.13.65 0 1.45.91 2.12 1.58 2.12.47 0 .4-.33.46-.49.02.25.25-.12.25.31 0 .45-.46.25-.46.64 0 .52.73-.02.73.56 0 .69-.09.68-.09.95 0 .18.76-.25.72-.33.18.07.17.61.51.59.22-.01.27-.55.44-.6-.1.03.69.52.69.27 0-.68-.28-.39-.28-.85 0-.43.94-.35.79-.56-.12-.18-.21-.07-.31-.39.02.06-.74-1.07.16-.49.96.6 1.07-1.44 1.02-1.55h0zm24.26 4.81c.41 0 .75-.3.75-.66s-.33-.66-.75-.66c-.41 0-.75.29-.75.66 0 .36.33.66.75.66h0zm-3.03 1.8c.41 0 .75-.3.75-.66s-.33-.66-.75-.66c-.41 0-.75.3-.75.66s.34.66.75.66h0z"/><path d="M169.72 53.86c.41 0 .75-.29.75-.66 0-.36-.34-.66-.75-.66s-.75.3-.75.66.33.66.75.66h0zm2.33.2c.41 0 .75-.3.75-.66s-.33-.66-.75-.66-.75.29-.75.66c0 .36.33.66.75.66h0zm64.71-31.37c1.11 1.32 1.35 3.44.55 4.95-.44-.04-.36-.6-.44-.92-.79-1.48-1.43-3.36-.71-5.03.52.08.32.72.6 1h0zm-94.96 1.8c-.24.96-.24 2.28 0 3.16-.2.2-.16-.2-.36-.16-1.55-1.12-.83-3.31-1.23-4.87.08-.12.28-.16.4-.08.71.47 1.03 1.15 1.19 1.95h0zm98.37.12c.24.44-.2.88-.52 1.08-.36.08-.75-.12-.99-.44-.12-.44.12-.84.48-1.04.4-.04.79.04 1.03.4h0zm-100.79 1.76c-.08.36-.2.72-.51.88-.24 0-.6 0-.75-.2-.24-.2-.28-.56-.16-.84.16-.28.48-.32.75-.36.28.12.55.2.67.52h0zm102.34.68a.88.88 0 0 1 0 .64c-.28.36-.67.52-1.07.36-.28-.16-.36-.44-.44-.68.08-.32.4-.6.67-.72.36 0 .6.2.84.4h0zm-2.26.04c.32.16.08.56.04.8-.2.2-.48.52-.83.4-.2-.2-.43-.2-.51-.48 0-.4.16-.8.56-.92.3-.08.5.08.74.2h0zm-2.9.6c0 .44.04 1-.48 1.08-.48.16-.79-.24-.91-.56-.04-.4.2-.8.59-.96.32 0 .6.2.8.44h0zm-92.86.2c.12.4-.28.64-.51.84-.28.08-.64-.16-.79-.44-.28-.28.08-.52.16-.76.39-.36.99-.08 1.14.36h0zm-2.38.12c0 .32-.16.64-.44.76-.32.12-.63-.12-.79-.36-.2-.4.04-.76.36-.92.44-.16.72.24.87.52h0zm85.64.16c.4.84.71 1.84.79 2.88-.16.76.12 1.76-.44 2.28-.56-.2-.59-.88-.95-1.24-.71-1.4-.08-3.04.16-4.4.32-.12.32.28.44.48h0zm-87.5.48c.12.48-.24.72-.52 1-.48.12-.79-.24-.99-.56-.04-.4.2-.8.52-.96.4-.04.79.16.99.52h0zm93.77 1.15c.52 1.16.56 2.56.2 3.84l-.24.2c-.55-1.08-1.35-2.08-1.63-3.24 0-.84.16-1.6.48-2.28.28-.2.44.04.55.28.04.45.24.96.64 1.2h0zm5-.72c-.04.4-.2.84-.6.96-.4.08-.79-.04-.91-.48-.12-.4.12-.76.44-.96.43-.23.87.17 1.07.48h0zm-96.87 1.24a.86.86 0 0 1-.6.76c-.32.24-.55-.16-.83-.28-.12-.32-.2-.6 0-.92.12-.24.4-.24.64-.32.36.2.71.36.79.76h0zm1.75-.2c.16.4-.28.6-.44.8-.48.16-.71-.2-.91-.48-.08-.4.16-.64.44-.88.47-.11.71.2.91.56h0zm96.23-.12c-.04.52-.83 1.04-.91 1.56-.44 1.08-1.39 1.88-2.46 2.24-.24.2-.56.48-.91.52-.08-.8.64-1.52 1.07-2.24.83-1.08 1.98-1.76 3.21-2.08h0zm-98.77 1.68c.59.68.91 1.28 1.63 1.88.04.16-.08.4-.28.4-1.94-.12-3.25-2.12-4.2-3.52.12-.44.63-.08.91-.12.67.52 1.43.68 1.94 1.36h0zm99.32.56c-.08 1.72-.91 3.48-2.46 4.32-.44.16-.91.6-1.35.32.83-1.72 2.1-3.12 3.49-4.63h.32v-.01zm-7.61 1.16c.12.6-.2.96-.67 1.16-.44.04-.71-.32-.91-.64-.04-.4.2-.76.56-.88.12-.12.32-.12.48-.12.22.08.34.28.54.48h0zm-93.89.36c.75.52 1.43 1.24 2.14 1.88-.51.36-1.15.04-1.75.04-1.35-.48-2.26-1.64-3.65-2.04.04-.44.55-.28.83-.4.88-.08 1.6.32 2.43.52h0zm42.48-11.83c-2.22-.88-3.69 1.44-5.95 1.16-.28.16-.2.44-.36.64-.12.12-.32.04-.44-.04-.12-.96-.44-1.84-.55-2.76-.24-.4-.12-.96-.32-1.36-1.27-3.48 3.09-.84 3.97-2.88.76-1.76-1.47-1.96-2.14-3.2v-.52c-.63-.64-1.31-.84-1.71-1.68.28-1 .4-2.08.12-3.08-.04-.24-.2-.56-.55-.44l-2.02 2.88c-.75-.56-1.47-1.28-2.34-1.76-.59-.08-1.15-.68-1.82-.44-.12.24 0 .44.12.6.04 1.56.83 2.8 1.94 3.92l.12.6c-.71 1.64-.52 3.51-.71 5.27-1.79 4.55-4.68 8.95-8.61 12.1-2.26 2.56-4.96 5.03-5.32 8.55-.12.56.08 1.24-.36 1.64-1.31-.48-2.62-1.12-3.69-1.96-1.82-1.28-4.44-1.12-5.63-3.44-.48-.92.12-1.84.56-2.52 1.35-1.28 1.15-3.56.44-5.11-.16-.04-.2.16-.32.2-.12 2.36-1.99 4-1.27 6.59.16.76.56 1.24.75 1.96-.28-.08-.67-.08-.91-.2-.87-.12-1.75-.48-2.66-.36-1.82.84-4.32-.2-5.79 1.48-.24.04-.55.08-.48.44.87 0 1.71.24 2.58.2 1.39.24 2.3-.92 3.25-1.44h.24c.4-.4 1.07-.16 1.59-.24 2.5.28 4.44 1.48 6.5 2.72v.16c-.79.36-1.71.6-2.5 1.04-.91.68-1.94 1.56-2.22 2.68-.63 1 .2 1.88.6 2.72.04.4.08.88.44 1.04 1.27-1.36.08-3.04.28-4.59.32-1.2 1.43-1.76 2.58-2.08 2.26-.96 3.89.88 5.71 1.92-.04 1.84.2 3.6-.2 5.39-.56.2-1.27.32-1.87.28-3.13.24-5.59 1.96-8.41 2.92-1.27.44-2.78.4-4.05.88.99.28 2.02-.08 3.05-.12 3.89-.56 6.86-3.56 11.07-3.04l.08.12c-.47 1-1.11 1.84-1.86 2.6-.12-.44-.16-.8-.56-1.04-.32-.16-.67 0-.91.32-.12.2-.12.44 0 .6.2.36.52.44.87.56-.08.36-.52.52-.75.84-1.11 1.88-3.37 1.12-4.68 2.44-.2.28-.91.44-.59.88 1.51.16 2.98-.24 4.08-1.04 1.47-1.64 3.02-3.19 4.48-4.75.24 1.28-.12 2.6-.87 3.64-.36-.2-.64-.48-1.07-.6-.4.08-.67.48-.71.8.16.28.32.6.59.8-1.35.96-3.05 1.04-4.6 1.48-2.89.36-5.71.6-8.65.64-1.39-.08-2.98.4-4.28 0-1.51.28-3.13-.2-4.36.64-.16.2.04.4.04.6 1.83 1.2 4.33.24 6.39.6h15.63c1.15-.04 2.3-.08 3.21-.6 2.02-1.16 3.13-3.24 4.17-5.27.4-.72.67-1.56.83-2.4a3.46 3.46 0 0 1 2.97-2.44c.2 2.08-.2 4.15-.67 6.07-.24 1.28-1.07 2.52-.55 3.88.12.64.79.64 1.31.72 4.8-.08 9.6-.28 14.68.08.91.16 1.71.44 2.7.4.08-.12.36-.16.24-.4-.12-.44-.44-1-.95-1.12-.08-.24-.44-.16-.55-.32-2.54-1.44-5.59-.68-8.57-.64-1.55.16-3.09.44-4.4-.44-.59-.72-.16-3-.16-3 0-.9 2.18-7.19 2.46-7.71.08-.6.32-1.16.24-1.84.32-.8.24-1.84.24-2.72.16-1.28.79-2.48 1.23-3.72.24-.6.44-1.24.67-1.84.24-.76.32-1.48.79-2.08 1.29.82 2.56.8 3.18 2.27l.55 3.33c0 .2.16.6.44.36 1.03-.68.71-2.2.71-3.24.24-1.24-.63-1.84-.99-2.92-.28-.2-.73-1.15-.73-1.15-.16-.88-2.08-1.48-1.65-2.56.24-.92.48-1.76 1.35-2.28.13.09.18.18.2.28l.48-.33.05-3.34c1.28 0 3.2.16 4.51.16.36.12.64.4 1.03.44l.32-.44 3.21-.63c-1.4.16-2.23-1.41-3.53-1.41h0z"/><path d="M184.36 23.35a1.77 1.77 0 0 0 .3-.06l-.3.06h0zm-34.55 11.13c.04.48-.24.76-.6.92-.32-.12-.55-.16-.75-.48-.16-.44.24-.76.55-.92.33.08.72.12.8.48h0zm-2.57 0c.24.24.28.64.16.92-.28.24-.71.44-.95.12-.24-.24-.47-.52-.28-.84.27-.28.75-.52 1.07-.2h0zm55.21.44l.03.06m30.19.62c.16.44-.2.76-.51.92-.4-.12-.91-.2-.91-.72.04-.32.32-.52.59-.6.36-.12.68.16.83.4h0zm2.11-.08c.12.2.4.52.08.72-.16.12-.28.16-.4.32-.44.08-.83-.08-.95-.48-.08-.44.28-.64.6-.84.27-.08.47.12.67.28h0zm-97.5.48c-.16.48-.55.68-1.07.52-.12-.12-.24-.32-.32-.52.04-.28.12-.56.44-.68.47.04.83.24.95.68h0zm13.37.68c-.04.32-.4.6-.67.76-.4.04-.67-.28-.87-.56 0-.32.16-.72.48-.8.42-.16.9.16 1.06.6h0zm-2.34-.28c.12.12.24.44.12.64-.24.2-.6.56-.99.32-.24-.2-.52-.36-.44-.76.16-.16.36-.4.6-.48.31-.08.47.12.71.28h0zm92.54.48c0 .32-.32.64-.52.76-.32.12-.67.04-.87-.2-.24-.08-.16-.4-.16-.6.2-.28.48-.44.75-.52.36.08.6.32.8.56h0zm2.53.36c-.12.36-.4.68-.75.72-.24-.04-.67-.12-.59-.48 0-.28.16-.56.36-.64.39-.2.86 0 .98.4h0zm-101.58.56c.08.48-.08.8-.48.96-.28.16-.56-.04-.75-.2-.2-.2-.36-.52-.2-.8.08-.36.44-.28.67-.44.36.04.56.2.76.48h0zm1.94.35c.12.32-.24.44-.32.68-.2.12-.48.24-.71.08-.28-.24-.6-.6-.32-.96.32-.59 1.16-.28 1.35.2h0zm94.76-.2c.04.4-.32.68-.55.92-.36.08-.71-.16-.79-.48-.04-.32.16-.56.44-.76.35-.04.71 0 .9.32h0zm3.26.64c-.08.36-.04.76-.44 1-.32.08-.71.04-.95-.16s-.28-.56-.16-.84c.2-.32.56-.56.95-.48.28.16.36.36.6.48h0zm-101.47.84c.16.32-.2.4-.32.56-.28.16-.56.04-.79-.08-.28-.16-.16-.56-.12-.76.36-.68 1.08-.2 1.23.28h0zm98.97.76c.16.04.08.28.04.36-.95.48-2.38.6-3.21-.16-.48-.4-1.07-.56-1.59-.88.2-.52.91-.48 1.43-.6 1.15.16 2.06 1.24 3.33 1.28h0zm-97.06-.36c.08.32-.16.44-.24.68-.16.24-.48.16-.67.08-.36-.24-.52-.68-.28-1 .43-.44.95-.2 1.19.24h0zm3.49.24c.16.36-.08.68-.4.88-.28.16-.52-.08-.75-.12-.2-.28-.56-.6-.2-.92.36-.6 1.07-.28 1.35.16h0zm45.86 1.69c-.08.8-1.39-.11-1.21.95.19.76.34 1.67.79 2.24.38.53.19 1.37.15 2.01-.34.57-.9.99-1.51 1.29-1.13-.11-2.79.57-3.32-.84-.23-.61-.64-1.21-.64-1.9.12-.08.27-.08.38-.19 0-.27-.3-.42-.26-.68 1.28-.23-.53-1.37.56-1.44.9.95 2.37.65 3.17 1.67.19.15.34.38.57.49-.15-.95-.6-1.9-.75-2.92-.11-.53.08-1.02.45-1.33.68-.52 1.24.23 1.62.65h0zm-42.37-.25c.12.4-.2.64-.44.84-.36.16-.55-.24-.71-.44-.12-.4.16-.6.4-.8.27 0 .59.12.75.4h0zm24.47.4c.47 1.56.32 3.16-.48 4.47-.04.32.08.84-.36.8-1.07-1.48-.28-3.56.16-5.11.09-.4.56-.56.68-.16h0zm33.96.76c.55 1.12.59 2.6.08 3.72l-.32.32c-.44-.92-.79-1.84-.91-2.84.2-.72.44-1.36.48-2.12.55-.12.51.6.67.92h0zm-55.34.44c-.24.48-.91.6-1.35.92-.95.72-2.34.88-3.53.68 1.03-1.44 2.62-2.28 4.52-1.88.09.16.28.08.36.28h0zm-16.3 1.44c1.47 1.04 1.86 2.48 2.74 3.91.12.16.52.2.36.52-.32.24-.63-.24-1.07-.16-1.51-.68-2.46-2.36-2.42-4.11-.01-.16.23-.16.39-.16h0zm70.09 1.24c.04.4-.04.8-.36.92a.72.72 0 0 1-.91-.48c-.12-.28.12-.44.2-.64.32-.33.87-.16 1.07.2h0z"/><path d="M222.8 47.9c0-.76.2-1.48.28-2.2.12-.24.2-.52.16-.84.95-1.28 2.9-.88 4.4-.76.6.32 1.35.28 1.98.44.28-.2.67-.24.99-.2 1.27-.68.44-2.16.52-3.32l-.48-1.2c-.12-.24-.24-.52-.32-.8-.24-.28-.4-.8-.63-1.08-.67-1.76-1.98-2.76-3.09-4.16-2.02-2.64-5.2-4.12-8.37-5.15-3.13-1.08-6.31.32-9.12 1.32-.87-.24-1.31-.92-1.55-1.68-.16-1.52.16-3 .75-4.23.12-1 .79-1.76 1.07-2.68.71-2.24 1.47-4.43 1.63-6.87.08-1.48-1.03-2.52-2.14-3.16-.75-.2-1.63-.16-2.18.44-.52 1.08-1.63 1.8-2.58 2.32-.08.68.75.24 1.03.48.87.16 1.87-.12 2.58.44.08 1.6-.83 2.92-1.67 4.11-1.35 2-2.78 4.03-3.61 6.23l-.16-.16.19 9.77c1.26 2.1 2.84 4.5 5.2 5.3 1.27 1.04 2.86 2.28 4.56 1.36.91-.28.99 1 1.43 1.52.48 1.48-.59 2.52-.67 3.87l-1.03 2.2c-1.19 2.32-2.26 4.79-4.08 6.75-.6 0-.95.64-1.55.68-.32.44-.95.12-1.35.28-1.23.52-2.98.2-3.81 1.36.08.12.2.16.32.2l7.7.08c.32-.12.6-.4.63-.76-.36-.68.12-1.28.44-1.8.2-.96.83-1.56 1.11-2.48l2.7-4.87 1.23-2c.28-.68.75-1.52 1.23-2.24.32-.32.48-.68.71-1.08.04-.4-.16-.56-.4-.84.28-.28.71-.2 1.07-.28.99.6 2.02 1.56 2.22 2.64l.36 1.04.16.48-.08 1.32.16 1.24c.2 1.92-.16 3.88-.36 5.79-.68 2.32-3.33 2.08-5.24 2.6-.48.32-1.39.16-1.39.96 2.3.48 5 .2 7.46.16.4-.16.48-.52.67-.88.08-.52.6-.96.44-1.52-.44-.56-.04-1.44-.16-2.2.08-.2.08-.48 0-.76.32-1.16.24-2.56.48-3.68l.16-1.5h0zm19.51-1.56c-1.27 1.8-2.62 3.83-4.84 4.47-.16 0-.32.08-.4-.12 1.35-1.44 2.06-3.68 4.17-4.19.32-.16.76-.32 1.07-.16h0zM134.03 48.3c-.2.16-.04.52-.4.56-.32.16-.67-.04-.83-.36-.16-.4.2-.8.51-.88.32.16.64.28.72.68h0zm11.42.56c.12.36-.28.36-.48.44-1.67.6-3.37.04-4.56-1.16 0-.16 0-.32.16-.36 1.63.4 3.53.08 4.88 1.08h0zm-9.24-.52a1.05 1.05 0 0 1 .08.6c-.24.36-.6.44-.99.36-.24-.12-.36-.28-.52-.52.04-.4.36-.64.67-.76.32.04.56.12.76.32h0zm37.16.2c.08.36-.24.6-.47.76a.78.78 0 0 1-.83-.32c-.12-.28 0-.68.28-.76.35-.08.91-.04 1.02.32h0zm70.45.16c.12.4-.24.6-.51.84-.24.12-.52 0-.75-.12-.04-.2-.28-.36-.2-.64.16-.36.51-.52.91-.48.19.16.35.2.55.4h0zm2.62-.16c.24.36.04.64-.16.92-.16.28-.48.36-.71.24-.24-.24-.56-.36-.59-.72 0-.32.36-.56.59-.68.39-.16.55.24.87.24h0zM132.36 49.7c.04.28-.2.44-.28.68-.2.08-.4.24-.64.16-.28-.12-.48-.36-.59-.64.08-.36.32-.68.71-.8.33.08.68.24.8.6h0zm83.54 0c.08.16.04.36.04.52-.24.32-.55.6-.95.4-.24-.24-.52-.48-.4-.84.31-.44.99-.6 1.31-.08h0zm-77.15.6c-.08.28-.2.56-.56.6s-.48-.28-.67-.44c0-.36-.04-.72.32-.92.47-.16.91.24.91.76h0zm-3.81.08c.12.4-.16.68-.4.88-.47.16-.87-.2-1.07-.56.04-.36.32-.8.71-.92.36 0 .56.4.76.6h0zm83.57-.08c.08.4-.04.8-.44.96-.48.16-.87-.24-1.07-.56.2-.32.24-.76.71-.84.37 0 .61.16.8.44h0zm-81.71.16c.12.28-.12.4-.2.6-.2 0-.32.24-.55.16-.16-.2-.48-.28-.52-.56-.04-.4.24-.6.52-.76.4-.04.64.24.75.56h0zm104.84.32c-.12.32-.36.48-.67.64-.32.08-.52-.2-.75-.32-.2-.16-.12-.52-.04-.72.39-.68 1.46-.36 1.46.4h0zm3.01.16c-.12.44-.55.64-.95.68-.36-.16-.75-.44-.48-.92.16-.16.24-.32.48-.36.48-.16.83.2.95.6h0zm-18.84.28c.2.52-.28.68-.59.92-.28-.04-.52-.16-.75-.32-.08-.44.12-.84.56-1.04.35 0 .54.16.78.44h0zm-10.91.48c.2.08.12.36.08.48-.24.16-.55.56-.91.32-.28-.16-.48-.4-.4-.76.2-.44 1.04-.48 1.23-.04h0zm2.22.28a.54.54 0 0 1-.32.64c-.28.28-.6-.04-.87-.12-.08-.16-.16-.4-.04-.6a.89.89 0 0 1 .52-.32c.28.08.6.08.71.4h0zm-67.31.04c.24.24-.04.52-.08.76-.2.24-.63.44-.99.2-.4-.16-.36-.68-.28-1 .24-.08.24-.36.55-.36.37.04.56.2.8.4h0zm80.25.16c.08.4-.32.56-.59.64-.48.16-.71-.2-.91-.52 0-.24.24-.4.32-.6.54-.24.9.16 1.18.48h0zm-2.15 0c.16.4-.28.6-.44.8a.79.79 0 0 1-.87-.16c-.2-.12-.2-.36-.2-.6.24-.2.36-.44.64-.52.36 0 .72.2.87.48h0zm17.89.48c.08.56-.63.28-.91.44-1.67 1-3.81.24-5.4-.36.12-.52.71-.32 1.03-.52 1.71-1.08 3.45.24 5.15.32l.13.12h0zm-108.56-.48l-.16.28c-1.47.88-3.37 1.48-5.12.92l-.16-.24c1.47-1.08 3.41-1.36 5.32-1.08l.12.12h0zm96.86.28a.91.91 0 0 1-.4.76c-.4.12-.91 0-1.03-.44-.12-.32.2-.64.52-.76.28 0 .75.04.91.44h0zm-89.76.16c-.16.32-.08.64-.48.8s-.87-.2-.99-.52c-.12-.44.2-.56.4-.76.47-.24.83.12 1.07.48h0zm-2.82.2c.12.28-.12.44-.2.64-.2.24-.56.2-.79.12-.28-.24-.56-.52-.44-.96.24-.2.36-.32.64-.44.36.08.71.24.79.64h0zm95.36.91a.86.86 0 0 1-.63.72c-.32.04-.6-.2-.75-.4-.12-.24-.08-.56.16-.76.08-.12.36-.12.52-.2.34.05.62.33.7.64h0zm-98.29-.43c.12.32-.16.44-.2.68-.12.68-.55 1.12-.87 1.72-.75.92-1.83.92-2.9 1.2l-.16-.32c1.15-1.48 2.38-2.64 4.01-3.36l.12.08h0zm96.31.87c.08.48-.32.56-.59.76-.36 0-.63-.2-.79-.48-.12-.44.28-.6.52-.8.38-.07.74.2.86.52h0zm-91.75 0c-.04.08.04.16.12.2-.04.44-.36.56-.6.76a1.06 1.06 0 0 1-.87-.4c-.16-.36 0-.8.4-.92.35-.04.83 0 .95.36h0zm99.04 1.2c.4-.04.47-.52.91-.6.4-.08.75.16.95.44.16.48-.2.72-.52.92-.28.2-.87-.24-.83.28.28.2.52.48.56.8-.08.16-.36.12-.48.04-1.15-.48-2.38-1.28-2.86-2.48-.16-.36-.91-.64-.48-.96 1.17-.08 2.12.84 2.75 1.56h0zm3.81-1.24c.2.2.12.56-.04.76-.2.4-.79.24-1.15.2-.2-.2-.4-.4-.32-.72.16-.24.32-.4.59-.52.37-.08.64.08.92.28h0zm-14.4 2.16a5.71 5.71 0 0 1 .87 1.6c-.08.12-.28.08-.36.08-1.35-.76-3.09-1.6-3.61-3.2-.12-.16-.44-.36-.4-.64 1.03-.2 2.02.56 2.74 1.12.29.4.6.6.76 1.04h0zm-90.67-1.52c.16.36-.16.64-.36.8-.44.08-.67-.08-.91-.32-.28-.44.24-.8.56-.96.31-.04.51.28.71.48h0zm95.63.92c.04.24-.28.4-.4.56-.32.04-.63.16-.91-.12-.08-.2-.28-.52-.04-.72.44-.56 1.07-.12 1.35.28h0zm9.88.56c.12.48-.24.8-.56 1-.4.12-.71-.16-.95-.36-.2-.24-.04-.48 0-.76.28-.24.63-.44 1.03-.28.16.12.32.2.48.4h0zm-27.45 5.52c0 .48-.87.36-1.23.72-1.23.64-2.7.64-4.16.6v-.24c1.42-1.2 3.49-1.64 5.39-1.08h0zm-57.87 1.71c-.04.36-.24.56-.6.68-.28 0-.56-.16-.67-.4-.16-.48.24-.68.52-.88.35.04.67.32.75.6h0zm57.2.44c-.08.36-.2.76-.6.92-.36.08-.6-.12-.87-.28-.2-.16-.08-.44-.12-.64a.86.86 0 0 1 1.59 0h0zm7.89.16c-.99.64-2.1 1.4-3.41 1.4l-2.14-.04-.2-.16c1.31-1.6 3.69-1.6 5.75-1.44v.24h0zm-75.96.96c0 .36-.16.64-.52.76-.4.08-.67-.08-.83-.36-.16-.36 0-.72.32-.92.43-.28.87.2 1.03.52h0zm1.98.4c.12.2-.08.32-.16.52-.24.12-.55.2-.75 0-.28-.16-.36-.44-.24-.68s.36-.2.48-.36c.28.12.55.24.67.52h0zm-15.19 4.04c-.4.48-1.03-.12-1.47-.36-1.39-.8-1.35-2.36-2.74-3.28.16-.48.51.04.79-.04a5.45 5.45 0 0 0 .83.44c1.36.76 1.68 2.04 2.59 3.24h0z"/><path d="M252.67 53.98c-.63-1.16-1.71-1.64-2.98-1.64-1.03.08-1.79.76-2.22 1.64-.24.88.08 1.68.75 2.2.28.12.63.08.79-.2.2-.52-.36-.52-.44-.92-.16-.56.04-1.04.44-1.4.4-.4 1.07-.2 1.55-.2.48.32.95.6 1.19 1.16a3.21 3.21 0 0 1 0 2.12c-.44 1-1.43 1.8-2.46 2-3.29.48-39.43.32-39.43.32-4.24.4-9.08-.8-12.73 1.44-1.67.8-2.5 2.64-2.93 4.27-1.07.96-2.22 2.08-3.09 3.16l-.12-.12c.2-.96.63-1.8.83-2.76.59-.8.59-1.88 1.03-2.76 1.51-2.44 2.93-4.91 5.28-6.63.99-1.32 2.74-1.08 4.24-1.08 1.63.76 3.53 1 5.51.8.08-.08.12-.16.12-.28-.56-.52-1.47-.72-2.1-1.24-1.59-.76-3.09.24-4.76.12-.08-.08-.16-.12-.12-.24 1.51-1.12 3.21-1.92 4.92-2.64 1.39-.76 2.86-1.16 4.32-1.72.6 0 1.15-.52 1.71-.16l2.1-.56c.08.04.16.16.32.12 1.78-.6 4.05-.04 6.07-.08l.28.24 1.9.48c.71.08 1.03.92 1.79.96.4-.56-.44-.8-.63-1.16.87-.2 1.87.04 2.66.4l-.39.44c-.24.44.12.76.47.92.28.08.48-.12.67-.2.52-.36-.04-.72.12-1.04 2.94.52 5.75 1.24 8.45 2.4.75.24 1.47.8 2.3.76-.83-.76-1.98-1.16-3.02-1.6-.67-.4-1.63-.44-2.14-1 .12-.2.4-.12.51-.28 1.35-.16 2.5-1.16 3.45-2.24.08-.24.51-.16.48-.48-.36-.4-.95.12-1.43.08-1.67.32-2.38 2.28-4.05 2.64l-6.11-1.48c-.99-.16-2.06-.24-2.97-.64l-2.22-.2h-4.05c-.04-.08-.16-.12-.12-.24 1.43-.36 2.66-1.2 4.09-1.56l10.63-4.87c1.11-1 2.1-2.12 3.01-3.28.04-.32-.16-.64-.44-.76s-.59-.08-.79.16c-.48.36 0 .8 0 1.24-.48.64-1.23 1.2-1.82 1.56-.16-.04-10.95 4.91-10.95 4.91-1.59.68-3.17 1.44-4.84 1.8l-2.3.36c-.16.48-.55.76-.99.92-.63.12-1.15.52-1.82.52-5.16 2-10.51 4.12-14.6 8.19.24-.48.36-1.08.4-1.68-.08-.6-.04-1.28-.44-1.76-.09-.22-.38-.86-.29-1.09l-.58.38c-.36.88-.67 2.48-.32 3.4.12.72.71 1.56.16 2.2-1.9 2.32-2.98 5.11-4.24 7.75-.48-.08-.71-.52-.91-.96 1.35-1.72 2.42-3.64 2.82-5.83.28-.2.08-.72.36-.96-.08-.64.36-1.28.04-1.8.25-.87-1.16-1.68-.26-2.24l-.75.36c-1.71 2.24.89 5.59-1.06 7.75v.16c-.55.72-.83 1.44-1.59 1.92-.95-.4-1.31-1.48-1.86-2.28-.87-.84-.87-2.56-.36-3.72.36-1.16-.24-2.16-.36-3.2l-.4-.24c-.95 1.24-1.31 3.2-.56 4.67.4.72.44 1.72 1.03 2.32.36 1.16 1.07 1.92 1.71 2.96.16.4-.24.48-.44.68-.44-.28-.36-.92-.75-1.2-1.31-2.8-3.02-5.03-5.08-7.31-.08-.36-.44-.68-.24-1.08.75-.72.91-2.12.52-3.04-.08-.2-.32-.44-.28-.64l-.6-.48c.08 1.4-.83 2.64-.44 4.11v.08c-4.09-3.08-8.6-5.82-13.2-7.98l-.37 1.01c1.16.29 4.25 2.17 4.25 2.17 1.39.52 2.66 1.36 3.97 2.12 5.39 3 8.96 7.95 11.38 13.46.04.44.44.92.16 1.36-.83-1.28-2.02-2-3.01-3.04-.28-1.88-1.39-3.68-3.02-4.43-.59-.88-1.86-.96-2.86-1.24l-14.44-.08c-11.74-.16-22.45.36-34.11.16-1.63-.16-3.61-.72-4.09-2.44-.32-.6-.32-1.64 0-2.2.44-.76 1.23-1 2.02-1.08.63.08 1.07.68 1.35 1.12 0 .52-.44 1-.64 1.44.04.16.2.48.48.36.52-.2.91-.76 1.03-1.28.04-.28.16-.68-.12-.88-.24-.84-1.11-1.44-1.86-1.64-.99-.08-2.02.2-2.7.92-.95.8-.91 2.24-.63 3.36.63 1.76 2.5 2.96 4.28 3.2l38.59.16c3.77.2 8.01-.44 11.82.32 1.39.44 2.86 1.48 3.21 3.04-.04.08-.16.04-.28.04-3.14-2.04-7.26-2.8-11.27-2.32-1.59-.08-3.01.52-4.44.92-.75.16-1.47-.2-1.94-.64-1.43-1.28-3.93-1.2-5.75-.72 0 .12-.04.24.04.28 1.94-.16 3.09 1.52 4.84 1.72.4.08.71-.36 1.07-.04-1.82.88-3.57 1.92-5.51 2.48-.6-.12-.91-.68-1.39-1-.75-.84-2.14-.48-3.17-.56-.36.08-.67-.16-.91 0 .32.64 1.03 1 1.71 1.32.99.44 2.14-.04 3.05.56-.24.28-.56.36-.83.56-1.87.72-3.41 2.4-5.47 2.28-2.18.24-4.4-.4-5.87-1.92-.63-1.56-2.26-2.4-4.01-2.32-.12.08-.28.08-.24.28.87.52 1.55 1.56 2.42 2.16.56.68 1.63 0 2.14.76.76.52 1.71.96 2.58 1.12.63.28 1.35.4 2.06.56l-.28.16c-3.61 1.2-7.77 1.32-11.82 1.16-1.19-.04-2.34-.4-3.53-.36.2.24.6.44.95.56-.32.2-.67.28-1.07.32-.48.12-1.03.16-1.51.4-.63-.04-1.19.2-1.7.4-.67.72-1.47 1.48-2.26 1.84 0 .16-.04.4.16.4.75-.32 1.71-.08 2.46-.4 1.31-.12 2.06-1.56 3.09-2.16 1.11-.88 2.7-.68 4.04-.48.79.2-.08.52.16 1.04.32.28.59.6 1.03.48.08-.08.16-.16.28-.2.24-.32.2-.68.04-1 .56-.36 1.31.04 1.9-.2 1.51-.04 3.01-.36 4.48-.4.24-.04.52-.28.75-.04-.12.32-.52.36-.36.8.08.36.48.52.79.6.4-.16.75-.44.59-.96-.08-.28-.4-.32-.59-.44.83-.4 1.78-.52 2.62-.92.6-.12 1.15-.32 1.67-.56.52-.04.95-.52 1.43-.32a8.64 8.64 0 0 1-.83 1.92c-.63 2.12-1.11 4.91 0 6.95.12.04.16-.04.24-.08-.83-2.12-.36-4.55.36-6.55.55-3.4 4.05-4.39 6.55-5.67l.12.16c-.67 1.76-1.67 3.44-1.51 5.55.08.36-.16.72 0 .96.67-.36 1.11-1.16 1.47-1.84.28-1.8-.75-4.03 1.07-5.35 3.25-1.28 6.31-2.96 10.07-3 .12.12.4-.08.44.16-.79.88-1.94 1.72-2.3 2.8-1.27 1.76-1.23 4.75-.67 6.91.36 1.24-.71 1.92-1.23 2.88-.25.34-.32.92-.54 1.31l.78.09c.67-.72 1.31-1.6 1.35-2.64a1.09 1.09 0 0 0 .75.8c.28-.44-.24-.76-.28-1.2.64-.36.91.44 1.43.6.83.2 1.55.56 2.42.56l.28-.28c-.87-1.36-2.62-1.6-4.13-1.68-.79-1.32-.79-2.96-.71-4.55.16-.84.32-1.72.79-2.48.2-.56.75-1.08 1.11-1.52.71-.68 1.63-1.16 2.5-1.36h.12c0 .08.04.12.04.12-1.07.84-1.19 2-1.82 3.04-.67 1-.99 2.36-.36 3.48.24.52.12 1.32.67 1.68.51-.72.56-1.64.83-2.44-.12-1.32-.91-2.56-.16-3.83.4-1 1.23-1.4 2.14-1.76 2.18-.2 4.09.92 5.99 1.76.4.28 1.07.52 1.15 1.08-.04 1.08-.63 2.16-1.47 2.68-1.07.64-2.62.72-3.61-.04-.59-.6-.83-1.64-.63-2.44.44-.48 1.03-.88 1.75-.64.4.2.75.6 1.27.36.2-.12.28-.44.16-.64-.44-.24-.59-.84-1.19-.92-.75-.12-1.67-.08-2.18.44-.83.72-1.15 1.8-.91 2.8.28 1.28 1.23 2.2 2.46 2.56 1.83.44 3.73-.12 4.88-1.68.48-.52.59-1.08.87-1.72 1.9 1.16 3.33 3.2 4.09 5.27 0 .68.2 1.4.04 2l1.39.12c-.12-.32 0-.68.12-.96.52-2.64 2.14-4.83 4.08-6.55.67-.4.52.52.67.8.59 1.52 1.98 2.6 3.45 3.04 1.66.28 3.25-.12 4.28-1.4.52-.96 1.15-2.36.28-3.36-.55-.68-1.31-1.04-2.18-1.04-1.03 0-1.67.72-2.18 1.48 0 .32-.04.68.24.84.16 0 .48.04.6-.2.08-.6.59-.88 1.07-1.2.44-.24.91 0 1.27.24.44.36.52.96.55 1.56-.08.76-.59 1.56-1.31 1.88-1.15.6-2.82.32-3.81-.36-.48-.52-.75-1.12-1.11-1.76-.08-.64-.32-1.2 0-1.84 1.75-1.04 3.57-1.8 5.67-2 .83.16 1.55.72 2.1 1.32 1.83 1.88-.4 4.56.87 6.63.48-.08.48-.72.67-1.12.6-1.44-.16-3-.51-4.39-.48-.88-.75-1.64-1.51-2.36.2-.08.28-.08.48-.08.83.56 1.75 1.2 2.42 2.08a10.73 10.73 0 0 1 1.55 6.55c-.32 1.2-1.59 1.76-2.58 2.2-.4.32-.87.8-1.07 1.28.48.28 1.15 0 1.62-.2.75-.28 1.19-1.24 1.71-1.68.08.04.04.16.08.24.04.44-.2 1.04.2 1.16.2-.56.24-1.36.36-2.04.52.56.59 1.28.75 2 .36.72.95 1.68 1.9 1.8.24-.36-.04-.72-.12-1.04-.12-1-.95-1.52-1.51-2.24-1.39-1.92-.75-4.91-1.83-7.07-.4-1.16-1.23-2-2.14-2.96l.16-.16c1.94-.04 3.57.6 5.36.96 2.18 1.08 5.35.84 6.39 3.68.44 1.6 1.15 3.08 2.26 4.31l.12-.08c.24-.4.24-1.08 0-1.48-.24-2-1.98-2.48-2.9-4.16l.12-.16c.95.28 1.94.52 2.9.92 3.17.88 5.39 4 5.79 7.23 0 2.56-.48 4.67-1.47 6.83-.12.32-.67.68-.32.96.44-.32.52-.84.75-1.2 1.31-2.2 1.98-5.23 1.31-8.03-.04-.52-.63-.92-.36-1.44.2.24.44.28.67.36.24-.16.6-.16.75-.44.04-.24.2-.52 0-.72-.24-.36-.75-.36-1.15-.28-.2.24-.44.56-.48.88-.4-.68-.79-1.56-1.43-2.12l.08-.12c1.79.6 3.41 1.48 5.24 1.96.4.24.83.44 1.39.44 1.55.6 3.25.84 4.88 1.24 1.19-.12 2.18.44 3.37.16v-.08l-.04.04c-.44-.56-1.39-.04-1.9-.44-2.74-.28-5.35-1-7.81-1.96.04-.12.2-.08.32-.08.4-.2.67-.56.63-1-.2-.28-.52-.44-.91-.44-.24.12-.56.4-.6.68.04.32.32.68.6.76-.08.08-.24.04-.36.04l-3.61-1.64c-.44-.08-.79-.44-1.23-.52-.91-.44-1.83-.88-2.74-1.24-2.54-1.32-5.35-2.04-8.05-3l-1.71-.48-2.97-.8c-3.37-.84-7.89-.92-10.83.92-.48-.16-.75.6-.99.12.83-2.2 3.25-2.92 5.43-3l46.49-.52c1.83 0 3.61-.64 4.56-2.28.71-.94.83-2.58.32-3.65h0zM189.6 68.72c-.16.48-.48.88-.44 1.4l-.16.07c.12-.6-.48-.96-.32-1.6-.32-.48-.32-1.08-.59-1.6-.36-.64.32-.92.59-1.36.56.24.75.76 1.15 1.24.24.69-.27 1.21-.23 1.85h0zm43.03-2.52c0 .12.24.16.16.36-1.39 1.24-3.33 1.6-5.31 1.68-.16.04-.32.16-.51.12-.12-.08-.16-.2-.08-.28 1.42-1.56 3.6-2.36 5.74-1.88h0zm-6.38.64c.16.56-.2.88-.64 1.08-.44-.04-.67-.32-.87-.64-.12-.32.16-.48.28-.68.32-.32 1.07-.32 1.23.24h0zm-75.4.08c.08.28.04.64-.2.84-.16.2-.52.24-.71.2-.28-.04-.44-.36-.51-.6 0-.36.2-.56.51-.76.31 0 .67-.04.91.32h0zm-7.11 2.6v.28a3.1 3.1 0 0 1-2.58-.6c-.56-.8-1.19-1.6-2.1-2 0-.12-.24-.28 0-.36 1.99 0 3.18 1.6 4.68 2.68h0zm94.92-2.64c-.91 1.36-1.71 3.04-3.33 3.64-.28 0-.52.4-.75.12.64-1.52 1.98-3.16 3.53-3.8.16 0 .39-.04.55.04h0zm-85.51.48c.04.44-.28.52-.56.76-.32.04-.48-.2-.67-.44-.16-.4.2-.56.4-.76.31-.08.67.16.83.44h0zm90.51.24c-.36.52-.2 1.28-.55 1.84-.79.92-1.47 1.96-2.74 2.16-.2-.4.28-.8.48-1.16.56-1.2 1.35-2.56 2.62-3.08l.19.24h0zm-112.21.36c.12.28.24.56 0 .88-.24.2-.59.28-.91.16-.36-.2-.48-.64-.32-.96.24-.36.95-.56 1.23-.08h0zm-2.26.48c.04.2.16.36.12.56-.12.2-.32.44-.55.48-.44.08-.71-.16-.91-.52-.04-.36.08-.68.39-.84.35-.16.75.04.95.32h0zm4.68.24c.08.32.16.88-.32.96-.56.24-.87-.16-1.19-.48a.91.91 0 0 1 .48-.8c.39-.04.75 0 1.03.32h0zm6.5.52c-.04.28.04.68-.28.76-.2.2-.55.12-.75.08-.08-.24-.52-.44-.28-.72.16-.2.32-.32.56-.44.24.12.6 0 .75.32h0zm107.1.28c-.12.28-.28.64-.6.64-.36-.04-.71-.08-.91-.44-.16-.44.2-.68.52-.8.39 0 .91.16.99.6h0zm-7.26.19c.04.32-.32.56-.48.68-.56.24-1.03-.16-1.23-.6.08-.36.36-.6.68-.72.51-.03.79.25 1.03.64h0zm4.92-.07c0 .28-.16.56-.36.68-.32.12-.71.08-.95-.16-.36-.32-.08-.6.16-.84.36-.2 1.03-.16 1.15.32h0zm-114.71.67c.08.44-.08.84-.47 1-.36 0-.75-.2-.87-.56-.04-.36.08-.72.4-.84.38-.12.7.13.94.4h0zm107.81.44c.12.44-.12.84-.56 1.04-.32.08-.52-.08-.75-.28-.16-.2-.36-.64-.04-.84.32-.59 1.11-.36 1.35.08h0zm-86.47.44c.16.44-.32.52-.44.76-.16.08-.48.12-.59-.04-.2-.24-.44-.48-.32-.84.2-.16.28-.32.52-.4.43-.12.59.28.83.52h0zm94.99.28c.08.28-.16.4-.2.6-.24.2-.63.24-.91.16-.36-.2-.36-.52-.36-.88.24-.16.28-.36.55-.44.37 0 .81.16.92.56h0zm-2.45.12c.16.48-.28.72-.59.84-.16.04-.4-.08-.44.16 1.03.52 1.67 1.36 2.46 2.12v.32c-1.43-.04-2.9-.4-3.93-1.52-.28-.2-.75-.2-1.07-.48.52-.52 1.47-.32 2.18-.36.52-.56-.59-.96.08-1.44.24-.04.4-.28.71-.2.28.12.44.32.6.56h0zm-16.23.04c.08.2-.16.44-.2.64-.24.24-.6.28-.87.16-.2-.28-.52-.52-.4-.92.32-.6 1.35-.48 1.47.12h0zm-88.69 1.4c-.12.36-.28.6-.67.64-.32-.04-.59-.16-.71-.48-.04-.28.16-.44.2-.64.43-.36 1.22-.12 1.18.48h0zm3.22-.52c0 .56-.6.88-.79 1.44-.59 1.32-1.66 2.52-3.17 2.64-.16-.36.52-.8.67-1.16.63-1.36 1.9-2.08 3.05-2.92h.24 0zm84.52.56c.04.44-.36.76-.67.92-.36.12-.63-.16-.83-.32-.32-.32-.12-.64.04-.96.47-.48 1.14-.08 1.46.36h0zm2.46.28a.99.99 0 0 1-.71.88c-.08-.12-.28-.04-.4-.08-.28-.16-.52-.4-.52-.72.2-.2.28-.52.56-.56.36-.04.95 0 1.07.48h0zm-80.84-.04c.04.44-.28.68-.59.84-.36.04-.6-.2-.75-.48-.08-.36.28-.6.48-.8.47-.16.59.2.86.44h0zm2.74.16a.95.95 0 0 1-.75.68c-.28-.08-.59-.16-.71-.48-.04-.4.28-.6.55-.8.39 0 .83.16.91.6h0zm86.63 2.8c.2.16.55.36.47.64-.63.28-1.15-.44-1.74-.56-.95-.96-1.67-2-2.06-3.2.36-.36.75.08 1.07.2.91.76 1.78 1.76 2.26 2.92h0zm1.47-2.8c.12.28.08.6-.08.88-.24.4-.75.32-1.11.24-.2-.24-.56-.56-.32-.92.12-.32.48-.4.75-.52.28-.04.48.2.76.32h0zm-84.45 1.04c.04.32.12.8-.28 1-.36.08-.83-.04-.95-.48-.2-.48.24-.56.48-.8.31-.08.51.08.75.28h0zm74.33 2.6c.55.8.95 1.8 1.03 2.84-.12.28.2.56-.04.76h-.16c-1.79-1.28-2.18-3.08-2.86-4.87-.16-.08-.2-.24-.16-.4.4-.36.67.36 1.07.48l1.12 1.19h0zm-69.18-1.36c-.04.04 0 .08.04.08-1.59 1.12-3.81 1.8-5.63.72-.04-.12.04-.32.2-.36 1.15-.36 2.26-.92 3.49-.76l1.9.32h0zm-9.04.2c-1.35.84-2.58 2.48-4.24 2.88-.32.12-.51.56-.91.32.71-2.16 3.05-3.32 5.16-3.52v.32h-.01zm75.88 1.79c.12.32 0 .76-.32.84-.2.2-.59.2-.75 0-.36-.16-.36-.52-.36-.8.12-.28.4-.32.59-.44.36.09.64.09.84.4h0zm-3.29.21c-.24.56-.91.88-1.43 1.04-1.35.48-2.58-.16-3.77-.48.04-.32.44-.2.63-.4 1.31-.28 2.66-.56 4.04-.2.13-.08.41-.12.53.04h0zm-72.59 1.15c-.12.16-.16.52-.48.64-.28.12-.55 0-.79-.16-.08-.24-.36-.44-.16-.72.08-.28.4-.36.63-.44.41.04.72.28.8.68h0zm2.34.36c-.12.24-.24.6-.55.76-.32.08-.56-.08-.79-.28-.12-.24-.24-.52-.12-.8.08-.2.36-.24.56-.36.39-.04.74.36.9.68h0zm72.79.4c.04.32-.12.52-.28.76-.2.28-.59.32-.87.16-.28-.04-.36-.36-.48-.56-.24-.32.16-.52.28-.8.43-.36 1.15-.16 1.35.44h0zm1.74-.08c.04.2.16.4.08.56-.24.2-.4.72-.87.52-.24.08-.36-.24-.47-.32-.16-.4-.04-1 .47-1.08.36-.12.59.2.79.32h0zm-75.96 1.16c.08.44-.08.84-.4 1.08-.44.08-.99.08-1.15-.44-.04-.4 0-.92.48-1.16.4-.04.87.04 1.07.52h0zm2.26-.16c-.08 1.12-.32 2.48-1.43 3.12-.64.12-1.27.72-1.9.32v-.2c.83-1.2 2.34-2.12 3.33-3.24h0zm65.73.92c.16.24-.12.44-.24.64-.24.28-.67.16-.95.04s-.32-.52-.2-.8c.08-.24.32-.36.52-.44.36-.04.67.28.87.56h0zm-61.76 1.84c.55.92.24 2.16.55 3.16-.67.08-.95-.68-1.39-1.08-.87-1.2-.75-2.8-1.15-4.19a.21.21 0 0 1 .28-.08c.59.4 1.03 1.16 1.51 1.68-.08.27.24.27.2.51h0zm63.74-1.52c0 .32-.36.4-.55.6a1.42 1.42 0 0 1-.75-.36c-.12-.4.2-.52.4-.72.39-.16.78.04.9.48h0zm4.72 3.56c0 .12-.04.36-.24.28h-.16c-1.15-1.04-2.3-2.2-2.14-3.79l.24-.04c1.07.91 2.26 1.91 2.3 3.55h0zm-2.97-1.28c.04.32-.16.56-.36.76-.44.12-1.11.08-1.19-.52-.04-.4.4-.6.6-.8.47-.12.79.2.95.56h0zm-2.62.84c-.55 1.48-2.06 2.24-3.09 3.36-.2-.12-.12-.44-.08-.6.4-1.52 1.59-3 3.05-3.6.64.08 0 .52.12.84h0zm2.98 1.2c0 .36-.36.52-.55.72-.32-.04-.63-.12-.87-.44-.04-.4.28-.52.51-.72.39-.08.75.12.91.44h0zm-29.52-72.53c.54 0 .98.44.98.99s-.44.99-.98.99h-11.76c-.54 0-.98-.44-.98-.99a.99.99 0 0 1 .98-.99h11.76 0zm-8.32 1.7c1.15 0 .06-1.39-.56-1.39h-1.15c-1.15 0-.06 1.39.55 1.39h1.16 0zm4.82 0c1.15 0 .06-1.39-.56-1.39h-1.15c-1.15 0-.06 1.39.56 1.39h1.15 0zm3.55-1.39h-.44c-1.15 0-.17 1.39.44 1.39.78 0 .83-1.39 0-1.39h0zm-1.08 13.18l2.25.86 2.21-.86-.88 3.31 1.75-.36-.6 2 .6 1.92-1.55-.42.68 3.57-2.21-.86-2.25.86.91-3.57-1.79.5.48-2.01-.48-1.92 1.71.28-.83-3.3h0zm3.32 5.97c.5 0 .55-.7.55-1.3 0-1.36-1.08 0-1.63-1.28-.4 1.08-1.51.08-1.51 1.24 0 .8 0 1.34.79 1.34h1.8 0zM194.79 32c0 .52.7.17 1.21.17.52 0 1.21.35 1.21-.17 0-.74-.7-.48-1.21-.48s-1.21-.26-1.21.48h0z"/><path d="M188.42 32.13v-.42l-.38-.08.3-.3-.19-.34.39.04.23-.41.23.41.39-.04-.18.34.3.3-.38.08v.42l-.36-.27-.35.27zm-1.74 2.24v-.42l-.38-.07.29-.31-.18-.33.39.04.23-.41.23.4.39-.03-.18.33.29.31-.37.07v.42l-.36-.26-.35.26zm2.95-.28v-.42l-.37-.07.29-.31-.18-.34.39.04.23-.41.23.41.39-.04-.18.34.29.31-.37.07v.42l-.36-.27-.36.27zm.35 1.67v-.23l-.21-.04.17-.18-.11-.19.22.03.13-.23.13.22.22-.02-.1.19.17.18-.22.04v.23l-.2-.15-.2.15zm-2.74 1.92v-.72l-.65-.12.51-.52-.32-.58.66.07.4-.7.4.69.67-.06-.32.58.51.52-.65.12v.72l-.61-.45-.6.45zM188.63 0l1.4 3.43 3.54-1.04-1.8 3.24 3.02 2.14-3.64.61.22 3.71-2.74-2.49-2.73 2.49.22-3.71-3.64-.61 3.01-2.14-1.79-3.24 3.54 1.04L188.63 0zm-12.79 77.04c-.42.16-.58.27-.48.71l.5 2.1c.09.39.12 1-.14 1.38-.31.45-.96.74-1.44.85-.34.08-1.09.22-1.7-.03-.4-.17-.66-.35-.83-1.06l-.52-2.21c-.13-.55-.34-.52-.79-.45l-.04-.17 2.66-.64.04.16c-.52.14-.76.21-.62.79l.52 2.21c.09.38.31 1.29 1.44 1.01 1.38-.33 1.16-1.35 1.06-1.77l-.48-2.01c-.09-.4-.24-.61-.93-.47l-.04-.17 1.73-.42.06.19h0zm3.94.44c-.24-.43-.88-1.09-1.82-.88-.41.09-.8.39-.71.82.08.36.26.47.99.6l1.27.23c.29.05.98.3 1.14 1.03.13.58-.2 1.5-1.65 1.82-.75.17-1.16.02-1.4.08-.17.04-.18.17-.19.28l-.23.05-.36-1.64.23-.05c.31.63.93 1.28 1.93 1.06.95-.21.84-.88.82-.96-.1-.44-.5-.52-1.06-.61l-.58-.09c-1.47-.24-1.6-.81-1.66-1.12-.09-.4-.04-1.36 1.46-1.69.63-.14 1.05-.01 1.28-.06.18-.04.2-.15.21-.28l.24-.05.32 1.44-.23.02h0zm5.23 2.62l-2.88.28-.02-.17c.58-.1.78-.13.72-.7l-.34-3.56c-.56.08-1.39.19-1.45 1.29l-.23.02-.1-1.36 4.83-.46.14 1.36-.23.02c-.26-1.07-1.1-1.02-1.66-.99l.34 3.56c.06.57.25.57.85.55l.03.16h0zm6.73 0l-1.66-.03-1.63-2.16h-.22l-.03 1.33c-.01.54.17.57.7.64v.17l-2.73-.05v-.17c.55-.04.71-.06.72-.61l.06-3c.01-.58-.24-.6-.7-.64v-.17l2.6.05c.57.01 2.28.1 2.25 1.24-.02.84-.85 1.03-1.29 1.14l1.59 1.97c.11.12.23.13.33.14l.01.15h0zm-3.5-2.41c1.06.01 1.48-.13 1.5-1.01.01-.69-.31-.98-.96-1-.44-.01-.46.07-.51.28l-.03 1.73h0z"/><path d="M197.05 80.78l-2.6-.33.02-.17c.5.03.65.04.67-.18.02-.18-.17-.71-.26-.94l-1.81-.23-.46.82c-.03.26.35.32.62.37l-.02.17-1.63-.2.02-.17c.44 0 .58-.21.88-.69l2.24-3.47.22.03 1.35 3.77c.27.77.37 1.01.76 1.05v.17h0zm-2.25-1.9l-.61-1.74-.96 1.54 1.57.2h0zm6.96 2.86l-4.6-.84.03-.17c.46.03.7.06.77-.35l.59-3.23c.08-.44-.24-.51-.6-.6l.03-.17 2.78.51-.03.17c-.56-.08-.81-.12-.91.47l-.57 3.15c-.06.32.11.41.64.5 1.2.22 1.75-.25 2.25-.94l.23.04-.61 1.46h0zm3.05.68l-2.77-.58.04-.17c.43.06.75.1.83-.32l.66-3.22c.09-.44-.28-.53-.64-.63l.03-.17 2.77.58-.03.17c-.38-.06-.76-.14-.85.31l-.67 3.21c-.09.43.23.51.65.63l-.02.19h0zm5.63.73l-2.61-.27.02-.17c.5.02.65.03.67-.2.02-.18-.19-.71-.28-.94l-1.81-.19c-.28.46-.43.73-.44.83-.03.26.36.32.63.36l-.02.17-1.64-.17.02-.17c.44-.01.58-.23.87-.71l2.16-3.51.23.02 1.43 3.74c.29.76.39 1 .78 1.03l-.01.18h0zm-2.3-1.85l-.65-1.73-.92 1.56 1.57.17h0zm-18.39-52.94c0-1.63-.91-.1-1.42-1.49-.37 1.17-1.47.19-1.47 1.45 0 .48.13.76.36.91v.48c0 .12.1.23.22.23h1.73c.12 0 .22-.1.22-.23v-.52c.22-.18.36-.46.36-.83h0zm-1.41.31c-.48 0-1.12.33-1.12-.24 0-.8.54-.62 1.02-.62s1.21-.18 1.21.62c0 .57-.64.24-1.11.24h0zm15.6 19.71c.41 0 .75-.3.75-.66s-.33-.66-.75-.66c-.41 0-.75.3-.75.66.01.36.34.66.75.66h0z"/><use xlink:href="#C"/><use xlink:href="#C" x="-23.96"/><path d="M182.46 24.21s-.35.59-.35.7c0 .22.16.39.36.39s.35-.18.35-.39c0-.01-.36-.7-.36-.7h0z"/><use xlink:href="#C" x="-11.98"/><use xlink:href="#C" x="-5.99"/><use xlink:href="#D"/><use xlink:href="#D" y="7.99"/><path d="M177.44 46.75s.35.59.35.7c0 .21-.16.39-.36.39s-.36-.18-.36-.39c.01-.01.37-.7.37-.7h0z"/><use xlink:href="#D" x="5.98" y="17.68"/><path d="M200.73 32.44s-.35.59-.35.7c0 .22.16.39.35.39s.36-.17.36-.39c0-.01-.36-.7-.36-.7h0zm0 7.99s-.35.59-.35.7c0 .22.16.39.35.39s.36-.17.36-.39c0-.01-.36-.7-.36-.7h0zm-.96 6.32s-.35.59-.35.7c0 .21.16.39.36.39s.35-.18.35-.39c0-.01-.36-.7-.36-.7h0zm-5.02 3.37s-.35.59-.35.7c0 .22.16.39.36.39s.36-.17.36-.39c-.01-.01-.37-.7-.37-.7h0z"/><use xlink:href="#C" x="-11.8" y="29.47"/><path d="M198.38 41.76c.08.11.26.15.5.07l.23-.65c.02-.04-.26-.3-.43-.26-.64.15-1.32.23-1.69.84 0 .42.3.8.6.99.23-.08.26.15.41.27.04.19-.08.34-.26.34-.45-.46-1.24.15-1.58-.42.15-.57.45-1.21-.04-1.75.04-.11.23-.23.11-.34-.19-.53-.75-.11-1.09-.11-.56-.08-1.02.23-1.36.68a1.06 1.06 0 0 0 .3.57c.15-.04.23 0 .26.15l-.38.23c.11.11.11.27.15.42-.26.11-.53-.27-.64-.46 0-.3.04-.83-.38-.91-.07 0-.33.11-.33.11-.09.12-.15.35-.15.63 0 .27.15.68.15.68s1.16.86 1.43 1.39c-.34.68-.34 1.63-1.13 2.01-.23.15-.23.38-.23.61l.19.15c.49-.27 1.43-.34 1.36-1.18.19-.34.38-.72.71-.99.38-.08.72.11.87.42-.11.57-.49.95-1.02 1.14-.08.08-.04.19-.04.3.15.27.57.15.79.11.64-.42.91-1.18 1.47-1.4.07.38-.75.49-.23.87.34-.08.79.04 1.02-.42-.26-.64.9-.95.19-1.52 0-.57.6-.8.56-1.4-.23-.61-.94-.61-1.13-1.18.24-.14.58-.1.81.01h0zm-27.52 6.91c.41 0 .75-.3.75-.66s-.34-.66-.75-.66-.75.29-.75.66c0 .36.33.66.75.66h0zm-38.85 22.69c.41 0 .74-.32.74-.71s-.33-.71-.74-.71-.74.32-.74.71.33.71.74.71h0zm24.72 5.51h-.05l-.05-.06h-.01v.04c0 .02.01.02.02.02h0-.08 0c.02 0 .02 0 .02-.02v-.09c0-.02-.01-.02-.02-.02h0 .08c.02 0 .07 0 .07.04 0 .02-.02.03-.04.03l.06.06h0 0zm-.1-.07c.03 0 .04 0 .04-.03 0-.02-.01-.03-.03-.03l-.01.06h0z"/><path d="M156.84 76.78c0-.01-.02-.04-.05-.04-.01 0-.02.01-.02.02s0 .02.02.02l.04.01c.01 0 .03.02.03.04s-.01.04-.06.04c-.02 0-.03-.01-.04-.01l-.02.01v-.05h.01c.01.02.02.04.05.04s.03-.02.03-.02c0-.01-.01-.02-.03-.02l-.02-.01c-.04-.02-.04-.03-.04-.04s.01-.04.05-.04c.02 0 .03.01.04.01l.02-.01-.01.05h0 0z"/><path d="M157.08 76.74c-.01 0-.01.01-.02.01l-.05.12H157l-.04-.09h0l-.04.09h-.01l-.05-.12c0-.01-.01-.01-.02-.01h0 .07 0c-.01.01-.01.01-.01.02l.03.07h0l.03-.06-.01-.02s-.01-.01-.02-.01h0 .08 0c-.01 0-.02 0-.02.01l.02.08h0l.03-.07c0-.02-.01-.02-.02-.02h0 .06 0 0zm.01.13c.02 0 .05-.01.06-.05-.04 0-.06-.01-.06-.04 0-.01.01-.04.05-.04.02 0 .05.01.05.06.01.03-.03.07-.1.07h0 0zm.06-.06c.01-.01.01-.02.01-.02 0-.04 0-.05-.02-.05-.01 0-.01.01-.01.03 0 .03 0 .04.02.04h0z"/><path d="M157.23 76.78c.02 0 .04 0 .05.01s.03.02.03.04c0 .03-.03.05-.07.05-.02 0-.03-.01-.03-.02.03-.01.04.01.05.01s.02 0 .02-.02c0-.01-.01-.02-.03-.03s-.03-.01-.05-.01l.02-.07h.08l-.01.03h-.06v.01h0zm45.19-53.51v-.02h-27.64v.02h0l.02 21.12c0 2.15.91 4.04 2.17 4.62l10.63 6.75a1.27 1.27 0 0 0 .97.44c.34 0 .64-.13.86-.34l10.8-6.85c1.26-.58 2.17-2.46 2.17-4.62l.02-21.12h0 0zm-.78 21.4c-.14 1.6-.69 2.93-1.79 3.68l-10.42 6.62h-.06c-.22.18-.5.28-.8.28a1.32 1.32 0 0 1-.82-.29l-10.4-6.61c-1.11-.75-1.65-2.08-1.79-3.68V24.01h26.09v20.66h-.01zm-9.32 9.39l.34-.16c-.15.05-.25.1-.34.16h0zm-20.86 28.87l-2.61.3-.02-.17c.5-.09.64-.11.61-.34-.02-.18-.34-.65-.47-.85l-1.81.21c-.17.51-.27.8-.25.91.03.26.42.23.69.21l.02.17-1.62.19-.02-.17c.43-.1.51-.35.7-.88l1.36-3.9.23-.03 2.2 3.34c.45.68.6.89.99.84v.17h0zm-2.63-1.31l-1-1.54-.57 1.73 1.57-.19h0zm48.41-8.59c-.47-1.24-1.47-2.08-2.7-2.48-1.27-.28-2.62-.08-3.45.88-1.43 1.16-.44 3.08-.4 4.63 0 .32.04.56-.28.72-5.75-.52-11.11-1.96-16.82-2.56-1.31-.23-2.63-.17-3.88-.43l-1.6-.17c-4.96.16-9.92.44-14.56 1.64-.99.32-2.1.4-3.09.76-.71-.12-1.31.4-1.98.2l-1.31.31a1.15 1.15 0 0 1-.44-.03c-.63-1.64 1.27-2.64.67-4.23-.52-.92-1.55-1.8-2.74-1.64-1.35-.16-2.54.6-3.17 1.64-.91 2 .24 4.08.6 6.03-.08.64.64 1.36 0 1.88-1.27-.88-2.94-1.36-4.48-.92-.47.24-1.35-.08-1.58.48 1.7.92 3.89.8 5.79.72.24-.08.4-.12.59.04.16 1.04-.2 2.44.44 3.36.71.96 1.9 1.2 3.05 1.32 3.65-.12 6.9-1.2 10.23-2.04.52-.04.91-.32 1.47-.32 1.78-.4 3.73-.72 5.63-.76-.83 1.08-1.31 2.28-1.67 3.6-.48 1.08.83 1.24 1.23 1.84-1.23.36-2.1 1.2-3.25 1.68-2.54-.08-4.68.88-7.06 1.16-.04.52.83.36.91.88-.12.36-.48.4-.75.6-.04.24 0 .28.24.32.24-.28.75-.08.99-.36.79 0 1.47-.24 2.22-.28.67-.28 1.43-.32 2.02-.8.83-.24 1.35-.8 2.18-1.04 1.19 0 2.26-.4 3.37-.48v.24c-.91 1.48-1.86 3-2.82 4.39-.16.28.04.56.28.64.56.16 1.11 0 1.55-.24.83-1.44 1.59-2.8 2.26-4.28.28-1.36 1.27-2.08 2.26-3 .16-.08.4-.32.55-.08-.79.92-1.31 1.8-1.9 2.8-.32 1.12-.4 2.56.59 3.47.48.4 1.19.28 1.83.32 1.55-.8 3.53.48 4.72-1.04.71-.12.83.72 1.23 1.12.67.2 1.39.88 2.06.4-.04-.44-.52-.84-.75-1.24-.48-.84-1.07-1.52-1.51-2.28-.2-.56-.55-.92-.63-1.48.71.24 1.35.72 2.14.84.67.28 1.51.24 2.14.64.52.68 1.31 1.08 1.98 1.52.99.48 2.1.56 3.13.96.4.04.99.36 1.27 0-.16-.2-.36-.32-.59-.44-.12-.52.71-.24.99-.64-.1-.2-.27-.28-.46-.3-.57-.3-1.98-.41-2.36-.62-.47-.08-.91-.28-1.39-.44-2.38 0-3.69-2.16-5.59-2.96.44-.4 1.11-.72 1.39-1.32.36-.56.48-1.48.12-2.12-.36-1.24-1.94-1.08-2.86-1.76l.12-.12c1.55-.08 2.9.28 4.28.56 3.81.52 7.34 1.96 11.31 2.04 2.18 0 4.92.12 5.99-2l.63-3.72c.51-1.97 1.82-3.81 1.62-6.01h0zM174.4 91.25l-.55-.52c.28-.36.87-.16 1.31-.4 1.03-.32 2.22-.72 3.37-.48-1.19.96-2.74 1.08-4.13 1.4h0zm24.77-.64c.95.43 2.86.85 4.23 1-.12.54-1.09.04-.98.8-1.23-.48-2.66-.72-3.57-1.68.08-.04.16-.16.32-.12h0zm-37.22-16.98c.12-.72.28-1.48.95-2 .95-.52 2.26-.4 3.13.12.28.16.48.4.64.76.2.68-.12 1.4-.6 1.8h-.4c0-.64 0-1.28.24-1.8-.04-.48-.44-.52-.75-.72-.68-.2-1.27.12-1.79.4-.4.48-.75 1.08-.51 1.76.28.44.04 1.04.2 1.52l-.12.16c-.47-.52-1.11-1.08-.99-2h0zm1.87 1.14c.59.44 1.43.24 2.14.36.12.44.12 1-.2 1.36-.67-.16-1.55-.08-1.9-.72.07-.28-.12-.68-.04-1h0zm-.12-1.34c.12-.32 0-.8.44-.88.28-.08.71-.08.75.24-.04.48-.08.96-.2 1.4-.56.04-.83-.28-.99-.76h0zm18.6 12.82c-.2-1.4.36-2.6 1.27-3.6.55-.12 1.19-.24 1.71.08-1.03.28-2.34.52-2.58 1.84.04.52-.12.8.12 1.24.44.76 1.43.44 1.98 1.04 0 .2-.16.44-.36.48-.67-.4-1.51-.56-2.14-1.08h0zm-1.43 2.76c.95-.4 1.94-1.24 3.01-.88-.75.6-1.98.84-3.01.88h0zm3.77.4a31.91 31.91 0 0 1-1.94 3.76c-.08.2-.4.24-.63.28 0-.56.55-1 .79-1.48.83-1.08 1.07-2.24 2.02-3.28.23.24-.24.4-.24.72h0zm.99-2.32v.16h-.08v-.16-.04h.16c-.04 0-.12 0-.16.04h.08 0zm-.35-1.08c-.68-.08-1.31-.28-1.9-.48-.4-.4 0-.84 0-1.28.55-.88 2.14-1.32 2.9-.52-.13.89-.45 1.65-1 2.28h0zm.87 0c.12-.52.36-1.2.63-1.68-.04.53-.28 1.25-.63 1.68h0zm.43-3.23c-.52-.12-.79-.72-1.35-.72.48-.16.95-.12 1.51-.04.2.28-.12.52-.16.76h0zm.48 1.2h-.04v-.44h.04v.44h0zm.04 1.83c-.04-.16.08-.36.12-.56.2-.2.4.16.48.28-.13.21-.36.32-.6.28h0zm.59-2.47c.2-.56.24-1.04.6-1.48.4 0 .75 0 1.07.16.08.8 1.07 1.88 0 2.56-.36.16-.87.52-1.27.16-.52-.44-.6-.84-.4-1.4h0zm2.9-1.12c-.08-.36.36-.08.52-.24l1.23.08c-.64-.08-1.43 1.4-1.75.16h0zm1.98.52c-.48.16-.83.72-1.31.84.24-.44.84-.88 1.31-.84h0zm-1.66 2.48v.12h-.04v-.12h.04 0zm.08 2.43c-.04.08.04.2-.08.28l-.91-.72c.43-.08.75.12.99.44h0zm-1.08-1.24c.08-.08.28-.08.36 0h-.36 0zm-.55-.6c.16-.24.36-.6.63-.6 0 .04.04.08.08.12-.23.21-.43.41-.71.48h0zm-.91-.07h-.16l.24-.24c.12.08-.04.16-.08.24h0zm.12 1.51c.52-.56.99.32 1.19.76.6.88 2.14 1.68 1.55 2.88-.75.68-1.94.04-2.78.56-.44-.04-1.19.08-1.43-.36.43-1.28.83-2.72 1.47-3.84h0zm-1.11.76l.2-.32c-.32.96-.79 1.96-1.31 2.88-.24-.96.75-1.72 1.11-2.56h0zm1.74 4.76c-.75.04-1.9.48-2.62-.16.04-.32-.32-.48-.28-.8.63-.24 1.19.52 1.78-.04.91.04 1.86-.12 2.78.08.44.12 1.11-.72 1.19.12-.31 1.32-1.9.4-2.85.8h0zm2.3-5.76v-.12h.08v.12h-.08 0zm.24 2.52c.04.4.44.56.2.92-.08-.16-.32-.52-.2-.92h0zm1.11 2.4l-.2.08c-.2-.16-.12-.6-.08-.84.24.2.44.48.28.76h0zm1.98.96c-.04.12-.24.12-.32.04-1.19-1.52-1.75-3.12-2.5-4.79l.16-.04c.96 1.55 1.71 3.27 2.66 4.79h0zm1.47-3.68c-.08.04-.08.12-.08.16-1.15.04-1.9-.64-2.78-1.24l-.04-.2c1.08.08 1.95.76 2.9 1.28h0zm-1.03-5.31c.48.12.52.64.56 1.04-.04.88-.52 1.64-1.35 1.96-.44.24-1.11.32-1.55.16.95-.04 1.98-.4 2.38-1.36l-.04-1.8h0zm-.87-.16c.2.56.55 1.08.36 1.76-.4.76-1.19.76-1.9.92-.36.04-.64-.08-.91-.28.04-.16-.04-.28-.16-.4.12-.52-.91-1.04-.2-1.48.62-.6 2.13-1.96 2.81-.52h0zm20.15-2.92c-.32.4-.04 1.04-.44 1.4 0 .72-.6 1.08-1.11 1.36-4.72 1.04-9.36-.56-13.92-1.36-6.39-1.4-13.84-1.8-20.35-.32-3.05.56-6.03 1.28-8.96 2.12-1.83.24-3.81.52-5.55-.04-1.43-.68-.83-2.52-1.27-3.8.08-1-.28-1.8-.32-2.76-.12-.32-.2-.72-.16-1.04.59.08 1.19.52 1.82.68 3.33.64 6.31-.44 9.4-1 2.98-.64 6.03-1.16 9.16-1.4 3.57-.04 7.22-.24 10.63.36 1.11.04 2.06.32 3.13.4 2.22.28 4.29.88 6.55 1.04.36.12.79.12 1.19.2 3.57.56 7.58 1.56 10.99 0 0 1.44-.59 2.76-.79 4.16h0zm-1.11-4.87c.04.64-.56.48-.87.72h-.95c-.2-.32-.12-.8-.12-1.12.63.12 1.34.12 1.94.4h0zm-.44-1c.44-.44-.12-2.96 1.11-1.32 0 .32.04.8-.28 1.04-.2.16-.51.48-.83.28h0zm3.21-.4c-.36.72-.91 1.24-1.71 1.36.04-.96.91-1.64.6-2.72-.52-.76-1.55-1-2.5-.8-.36.24-.2.64-.32 1l-.16 1.32c-.79 0-.83-.72-1.07-1.28.04-.84.4-1.68 1.23-2.08.63-.32 1.67-.28 2.3.08.52.12 1.11.36 1.31.84.6.56.44 1.56.32 2.28h0z"/><path d="M63.57 137.09h250" fill="none" stroke="#000" stroke-width="1.276" stroke-miterlimit="3.8637"/><path d="M79.44 164.63v-.43h.53c.46 0 .81-.07 1.06-.22a1.28 1.28 0 0 0 .54-.59c.07-.16.11-.66.11-1.48v-10.45c0-.81-.04-1.32-.13-1.52s-.26-.38-.52-.53-.62-.23-1.06-.23h-.53v-.43h7.11c1.9 0 3.43.26 4.58.77 1.41.63 2.49 1.59 3.22 2.87s1.1 2.73 1.1 4.35c0 1.12-.18 2.15-.54 3.09s-.82 1.72-1.39 2.33a6.94 6.94 0 0 1-1.97 1.48c-.74.37-1.66.66-2.74.86-.48.09-1.23.14-2.25.14h-7.12zm6.06-14.99v12.4c0 .66.03 1.06.09 1.21a.66.66 0 0 0 .32.34c.21.12.52.18.91.18 1.3 0 2.3-.45 2.99-1.34.94-1.2 1.41-3.07 1.41-5.6 0-2.04-.32-3.67-.96-4.89-.51-.95-1.16-1.6-1.96-1.95-.57-.24-1.5-.35-2.8-.35zm20.56 9.12h-6.01c.07 1.45.46 2.6 1.16 3.45.54.65 1.19.97 1.95.97.47 0 .89-.13 1.28-.39s.79-.73 1.23-1.41l.4.26c-.59 1.21-1.25 2.07-1.97 2.57s-1.55.76-2.5.76c-1.62 0-2.86-.62-3.69-1.88-.67-1.01-1.01-2.26-1.01-3.75 0-1.83.49-3.28 1.48-4.37.99-1.08 2.15-1.62 3.47-1.62 1.11 0 2.07.46 2.89 1.37s1.26 2.25 1.32 4.04zm-2.88-.78c0-1.26-.07-2.12-.21-2.59s-.35-.82-.64-1.07c-.16-.14-.38-.21-.66-.21-.41 0-.74.2-1 .6-.46.7-.69 1.65-.69 2.86v.41h3.2zm8.26 5.54v4.08c0 .56.04.95.13 1.15a.92.92 0 0 0 .42.45c.19.1.55.14 1.1.14v.43h-6.25v-.43c.48-.02.84-.15 1.08-.41.16-.18.23-.64.23-1.39v-11.57c0-.77-.09-1.27-.27-1.48s-.53-.34-1.04-.37v-.43h4.59v1.44c.38-.56.77-.97 1.17-1.22.57-.37 1.19-.55 1.86-.55a3.52 3.52 0 0 1 2.2.76c.66.51 1.16 1.21 1.51 2.1s.52 1.86.52 2.89c0 1.11-.18 2.12-.53 3.04-.36.92-.87 1.62-1.55 2.1s-1.43.72-2.26.72c-.6 0-1.16-.13-1.69-.4-.38-.21-.79-.56-1.22-1.05zm0-1.18c.67.95 1.39 1.43 2.16 1.43.42 0 .77-.22 1.04-.67.41-.66.61-1.91.61-3.75 0-1.89-.22-3.18-.67-3.88-.3-.46-.7-.69-1.2-.69-.79 0-1.44.57-1.95 1.71v5.85zm14.91.68c-1.34 1.18-2.54 1.77-3.6 1.77-.62 0-1.14-.21-1.56-.62-.41-.41-.62-.92-.62-1.54 0-.84.36-1.59 1.08-2.26s2.29-1.56 4.7-2.67v-1.1c0-.83-.04-1.35-.13-1.56s-.26-.4-.51-.56-.53-.24-.84-.24c-.51 0-.93.11-1.25.34-.2.14-.3.3-.3.49 0 .16.11.37.33.61.3.34.45.66.45.97a1.29 1.29 0 0 1-.43.98c-.29.27-.66.4-1.12.4-.49 0-.9-.15-1.24-.45-.33-.3-.5-.64-.5-1.04 0-.56.22-1.1.67-1.61s1.07-.9 1.86-1.18 1.62-.41 2.48-.41c1.04 0 1.86.22 2.47.66s1 .92 1.18 1.44c.11.33.16 1.08.16 2.26v4.25c0 .5.02.81.06.94a.6.6 0 0 0 .18.29c.08.07.17.09.27.09.2 0 .41-.14.62-.43l.35.28c-.39.58-.79 1-1.21 1.26s-.89.39-1.42.39c-.63 0-1.11-.15-1.46-.44s-.59-.72-.67-1.31zm0-.86v-3.67c-.95.55-1.65 1.15-2.11 1.78-.3.42-.46.85-.46 1.28a1.33 1.33 0 0 0 .39.95c.2.21.47.32.82.32.39 0 .84-.22 1.36-.66zm10.26-8.48v2.48c.73-1.13 1.36-1.88 1.91-2.26s1.07-.56 1.58-.56c.44 0 .79.13 1.05.4s.39.65.39 1.14c0 .52-.13.93-.38 1.22s-.56.43-.92.43a1.59 1.59 0 0 1-1.08-.4l-.54-.45c-.08-.05-.17-.07-.27-.07-.23 0-.44.09-.64.26-.32.27-.56.64-.73 1.14-.25.76-.38 1.59-.38 2.51v2.52l.01.66c0 .45.03.73.08.86.09.21.23.37.42.46s.49.16.93.18v.42h-5.92v-.42c.48-.04.8-.17.97-.39s.25-.81.25-1.76V156c0-.62-.03-1.02-.09-1.2-.08-.22-.19-.38-.34-.48s-.41-.17-.79-.21v-.43h4.49z"/><use xlink:href="#E"/><path d="M154.77 153.68v1.44c.6-.66 1.16-1.12 1.67-1.38s1.07-.39 1.68-.39c.7 0 1.29.16 1.77.49s.84.83 1.1 1.5c.62-.7 1.22-1.21 1.8-1.52a3.72 3.72 0 0 1 1.8-.47c.76 0 1.36.17 1.81.52a2.76 2.76 0 0 1 .94 1.32c.18.53.26 1.39.26 2.56v4.49c0 .84.08 1.37.23 1.57s.47.34.96.4v.42h-5.66v-.42c.45-.04.77-.21.98-.52.14-.21.21-.7.21-1.45v-4.71c0-.98-.04-1.6-.12-1.86s-.2-.46-.37-.59-.37-.19-.59-.19c-.34 0-.68.12-1.02.37s-.69.62-1.04 1.11v5.88c0 .79.07 1.29.2 1.49.18.29.52.45 1.03.48v.42h-5.67v-.42c.3-.02.54-.09.72-.23s.29-.3.35-.49.09-.61.09-1.25v-4.71c0-.99-.04-1.61-.12-1.86s-.21-.45-.39-.59-.38-.21-.59-.21a1.54 1.54 0 0 0-.86.25c-.37.24-.76.66-1.17 1.24v5.88c0 .77.08 1.28.23 1.53s.47.39.96.44v.42h-5.65v-.42c.46-.05.79-.2.98-.45.13-.17.2-.68.2-1.52v-6.19c0-.83-.08-1.34-.23-1.55s-.47-.34-.96-.4v-.43h4.47zm24.49 5.08h-6.01c.07 1.45.46 2.6 1.16 3.45.54.65 1.19.97 1.94.97.47 0 .89-.13 1.28-.39s.79-.73 1.23-1.41l.4.26c-.59 1.21-1.25 2.07-1.97 2.57s-1.55.76-2.5.76c-1.62 0-2.86-.62-3.69-1.88-.67-1.01-1.01-2.26-1.01-3.75 0-1.83.49-3.28 1.48-4.37.99-1.08 2.15-1.62 3.47-1.62 1.11 0 2.07.46 2.89 1.37s1.27 2.25 1.33 4.04zm-2.88-.78c0-1.26-.07-2.12-.21-2.59s-.35-.82-.64-1.07c-.16-.14-.38-.21-.66-.21-.41 0-.74.2-1 .6-.46.7-.69 1.65-.69 2.86v.41h3.2zm8.49-4.3v1.42c.56-.61 1.1-1.05 1.62-1.33a3.44 3.44 0 0 1 1.66-.42c.71 0 1.3.2 1.77.59a2.82 2.82 0 0 1 .94 1.47c.12.45.19 1.3.19 2.57v4.27c0 .84.08 1.37.23 1.58s.47.34.96.39v.42h-5.54v-.42c.41-.05.71-.23.89-.52.12-.2.19-.68.19-1.45v-4.88c0-.9-.04-1.46-.11-1.7s-.19-.42-.36-.54-.35-.19-.56-.19c-.67 0-1.3.48-1.88 1.44v5.87c0 .82.08 1.34.23 1.56s.44.36.85.41v.42h-5.54v-.42c.46-.05.79-.2.98-.45.13-.17.2-.68.2-1.52v-6.19c0-.83-.08-1.34-.23-1.55s-.47-.34-.96-.4v-.43h4.47z"/><use xlink:href="#E" x="51.03"/><path d="M212.18 153.35c.95 0 1.84.25 2.66.74s1.44 1.19 1.87 2.1.64 1.9.64 2.98c0 1.55-.39 2.86-1.18 3.9-.95 1.27-2.27 1.9-3.95 1.9-1.65 0-2.92-.58-3.81-1.73s-1.34-2.5-1.34-4.02c0-1.57.46-2.94 1.37-4.11s2.15-1.76 3.74-1.76zm.04.83a1.38 1.38 0 0 0-1.03.45c-.29.3-.47.89-.56 1.78s-.13 2.12-.13 3.7c0 .84.05 1.62.16 2.34.09.55.27.98.55 1.27s.6.43.96.43a1.37 1.37 0 0 0 .88-.29c.3-.27.51-.64.61-1.11.16-.74.23-2.24.23-4.5 0-1.33-.07-2.24-.22-2.74s-.37-.86-.66-1.08c-.19-.17-.46-.25-.79-.25zm11.35.64v7.61c0 .73.08 1.2.23 1.38.25.29.71.42 1.38.4v.42h-6.46v-.42c.49-.01.84-.06 1.05-.17s.35-.25.43-.44.12-.58.12-1.17v-7.61h-1.59v-1.15h1.59v-.81l-.01-.55c0-1.12.41-2.06 1.24-2.81s1.94-1.12 3.35-1.12c.96 0 1.67.18 2.14.54s.7.76.7 1.2c0 .35-.14.66-.43.91s-.67.39-1.15.39c-.41 0-.73-.11-.97-.32s-.36-.45-.36-.7a2.33 2.33 0 0 1 .07-.43c.03-.13.05-.26.05-.38 0-.16-.05-.29-.14-.36-.12-.12-.28-.18-.46-.18a.69.69 0 0 0-.57.28c-.15.19-.23.49-.23.9l.02 2.05v1.39h1.62v1.15h-1.62zm14.47 2.17v4.92c0 .81.04 1.32.13 1.52s.27.38.53.53.62.23 1.06.23h.53v.43h-8.31v-.43h.53c.46 0 .83-.08 1.11-.25.2-.11.36-.3.47-.56.09-.19.13-.68.13-1.48v-10.45c0-.81-.04-1.32-.13-1.52s-.26-.38-.52-.53-.62-.23-1.06-.23h-.53v-.43h8.31v.43h-.53c-.46 0-.83.08-1.11.25-.2.11-.36.3-.48.56-.09.19-.13.68-.13 1.48v4.5h5.61v-4.5c0-.81-.04-1.32-.13-1.52s-.26-.38-.53-.53-.62-.23-1.07-.23h-.52v-.43h8.3v.43h-.52c-.47 0-.84.08-1.11.25-.2.11-.36.3-.48.56-.09.19-.13.68-.13 1.48v10.45c0 .81.04 1.32.13 1.52s.26.38.53.53.62.23 1.07.23h.52v.43h-8.3v-.43h.52c.47 0 .84-.08 1.11-.25.2-.11.36-.3.48-.56.09-.19.13-.68.13-1.48v-4.92h-5.61zm20.75 1.77h-6.01c.07 1.45.46 2.6 1.16 3.45.54.65 1.19.97 1.95.97.47 0 .89-.13 1.28-.39s.79-.73 1.23-1.41l.4.26c-.59 1.21-1.25 2.07-1.97 2.57s-1.55.76-2.5.76c-1.62 0-2.86-.62-3.69-1.88-.67-1.01-1.01-2.26-1.01-3.75 0-1.83.49-3.28 1.48-4.37s2.15-1.62 3.47-1.62c1.11 0 2.07.46 2.89 1.37s1.26 2.25 1.32 4.04zm-2.88-.78c0-1.26-.07-2.12-.21-2.59s-.35-.82-.64-1.07c-.16-.14-.38-.21-.66-.21-.41 0-.74.2-1 .6-.46.7-.69 1.65-.69 2.86v.41h3.2zm10.06 5.04c-1.34 1.18-2.54 1.77-3.6 1.77-.63 0-1.14-.21-1.56-.62s-.62-.92-.62-1.54c0-.84.36-1.59 1.08-2.26s2.29-1.56 4.7-2.67v-1.1c0-.83-.04-1.35-.13-1.56s-.26-.4-.51-.56-.53-.24-.84-.24c-.51 0-.93.11-1.25.34-.2.14-.3.3-.3.49 0 .16.11.37.33.61.3.34.45.66.45.97a1.29 1.29 0 0 1-.43.98c-.29.27-.66.4-1.12.4-.49 0-.9-.15-1.24-.45s-.5-.64-.5-1.04c0-.56.22-1.1.67-1.61s1.07-.9 1.86-1.18 1.62-.41 2.48-.41c1.04 0 1.86.22 2.47.66s1 .92 1.18 1.44c.11.33.16 1.08.16 2.26v4.25c0 .5.02.81.06.94a.6.6 0 0 0 .18.29c.08.07.17.09.27.09.2 0 .41-.14.62-.43l.35.28c-.39.58-.79 1-1.21 1.26s-.89.39-1.42.39c-.62 0-1.11-.15-1.46-.44s-.59-.72-.67-1.31zm0-.86v-3.67c-.95.55-1.65 1.15-2.11 1.78-.3.42-.46.85-.46 1.28a1.33 1.33 0 0 0 .39.95c.2.21.47.32.82.32.39 0 .84-.22 1.36-.66zm10-13.42v13.62c0 .77.09 1.27.27 1.48s.53.34 1.05.37v.42h-5.92v-.42c.48-.02.84-.16 1.08-.42.16-.18.23-.66.23-1.43v-11.34c0-.77-.09-1.26-.27-1.47s-.53-.34-1.04-.37v-.43h4.6z"/><use xlink:href="#E" x="135.64"/><path d="M290.34 148.74v6.34c.6-.63 1.15-1.08 1.65-1.34a3.34 3.34 0 0 1 1.56-.39c.69 0 1.28.2 1.76.59s.81.85.97 1.38.24 1.42.24 2.67v4.28c0 .84.08 1.36.23 1.56.16.21.47.34.95.39v.42h-5.55v-.42c.39-.05.68-.21.88-.47.14-.2.21-.7.21-1.49v-4.89c0-.91-.04-1.47-.11-1.71a1 1 0 0 0-.36-.54.91.91 0 0 0-.57-.19c-.31 0-.62.11-.91.32s-.62.59-.96 1.13v5.87c0 .78.06 1.27.18 1.46.15.27.45.43.91.49v.42h-5.55v-.42c.46-.05.79-.2.98-.45.13-.17.2-.68.2-1.51v-11.13c0-.83-.08-1.34-.23-1.55s-.47-.34-.96-.4v-.43h4.48zM120 188.13c-1.34 1.18-2.54 1.77-3.6 1.77-.62 0-1.14-.21-1.56-.62s-.62-.92-.62-1.54c0-.84.36-1.59 1.08-2.26s2.29-1.56 4.7-2.67v-1.1c0-.83-.04-1.35-.13-1.56s-.26-.4-.51-.56-.53-.24-.84-.24c-.51 0-.93.11-1.25.34-.2.14-.3.3-.3.49 0 .16.11.37.33.61.3.34.45.66.45.97a1.29 1.29 0 0 1-.43.98c-.29.27-.66.4-1.12.4-.49 0-.9-.15-1.24-.45s-.5-.64-.5-1.04c0-.56.22-1.1.67-1.61s1.07-.9 1.86-1.18c.8-.27 1.62-.41 2.48-.41 1.04 0 1.86.22 2.47.66s1 .92 1.18 1.44c.11.33.16 1.08.16 2.26v4.25c0 .5.02.81.06.94a.6.6 0 0 0 .18.29c.08.07.17.09.27.09.2 0 .41-.14.62-.43l.35.28c-.39.58-.79 1-1.21 1.26s-.89.39-1.42.39c-.62 0-1.11-.15-1.46-.44s-.59-.72-.67-1.31zm0-.86v-3.67c-.95.55-1.65 1.15-2.11 1.78-.3.42-.46.85-.46 1.28a1.33 1.33 0 0 0 .39.95c.2.21.47.32.82.32.39 0 .84-.22 1.36-.66zm10.19-8.48v1.42c.56-.61 1.1-1.05 1.62-1.33a3.44 3.44 0 0 1 1.66-.42c.71 0 1.3.2 1.77.59a2.82 2.82 0 0 1 .94 1.47c.13.45.19 1.3.19 2.57v4.27c0 .84.08 1.37.23 1.58s.47.34.96.39v.42H132v-.42c.41-.05.71-.23.89-.52.12-.2.19-.68.19-1.45v-4.88c0-.9-.04-1.46-.11-1.7s-.19-.42-.36-.54a.88.88 0 0 0-.56-.19c-.67 0-1.3.48-1.88 1.44v5.87c0 .82.08 1.34.23 1.56s.44.36.85.41v.42h-5.54v-.42c.46-.05.79-.2.98-.45.13-.17.2-.68.2-1.52v-6.19c0-.83-.08-1.34-.23-1.55s-.47-.34-.96-.4v-.43h4.49z"/><use xlink:href="#F"/><path d="M166.38 185.22h-5.61l-.67 1.55c-.22.52-.33.94-.33 1.28 0 .45.18.77.54.98.21.12.73.22 1.56.28v.43h-5.29v-.43c.57-.09 1.04-.32 1.41-.71s.82-1.19 1.36-2.4l5.68-12.68h.22l5.73 13.03c.55 1.23 1 2.01 1.35 2.33.27.24.64.38 1.12.42v.43h-7.69v-.43h.32c.62 0 1.05-.09 1.3-.26a.62.62 0 0 0 .26-.54 1.29 1.29 0 0 0-.07-.43c-.02-.07-.13-.36-.35-.88l-.84-1.97zm-.4-.86l-2.37-5.47-2.44 5.47h4.81zm15.35-5.44h3.69v1.29h-2.1c.38.38.65.73.8 1.04.19.42.28.86.28 1.32 0 .78-.22 1.46-.65 2.03s-1.02 1.02-1.77 1.35-1.41.49-1.99.49a124.97 124.97 0 0 1-1.41-.06c-.35 0-.65.12-.88.35s-.36.51-.36.83a.87.87 0 0 0 .32.69c.21.18.56.27 1.05.27l2.03-.02c1.64 0 2.77.18 3.39.54.88.5 1.32 1.27 1.32 2.31a2.93 2.93 0 0 1-.61 1.81c-.41.54-.94.94-1.61 1.2-1.01.38-2.17.57-3.48.57-.98 0-1.88-.1-2.7-.29s-1.39-.46-1.75-.8-.53-.7-.53-1.07c0-.36.13-.68.4-.97s.77-.53 1.51-.72c-1.02-.5-1.52-1.2-1.52-2.09 0-.54.21-1.06.62-1.57s1.07-.95 1.97-1.32c-1.05-.38-1.8-.89-2.27-1.51s-.7-1.35-.7-2.17c0-1.07.44-2 1.31-2.78.88-.79 2-1.18 3.38-1.18.74 0 1.49.15 2.26.46zm-2.72 12.44c-.8 0-1.32.07-1.58.2-.45.24-.67.57-.67.98 0 .4.23.76.69 1.08s1.33.49 2.6.49c1.09 0 1.94-.14 2.56-.43s.93-.7.93-1.22c0-.2-.06-.36-.18-.49-.21-.23-.53-.39-.96-.48s-1.54-.13-3.39-.13zm.69-12.17c-.45 0-.84.23-1.15.69s-.47 1.4-.47 2.84c0 1.16.15 1.96.46 2.4s.67.65 1.1.65c.47 0 .86-.21 1.17-.64s.47-1.27.47-2.51c0-1.4-.18-2.35-.53-2.86-.24-.38-.59-.57-1.05-.57zm16.04 4.69h-6.01c.07 1.45.46 2.6 1.16 3.45.54.65 1.19.97 1.95.97.47 0 .89-.13 1.28-.39s.79-.73 1.23-1.41l.4.26c-.59 1.21-1.25 2.07-1.97 2.57s-1.55.76-2.5.76c-1.62 0-2.86-.62-3.69-1.88-.67-1.01-1.01-2.26-1.01-3.75 0-1.83.49-3.28 1.48-4.37.99-1.08 2.15-1.62 3.47-1.62 1.11 0 2.07.46 2.89 1.37.82.9 1.26 2.25 1.32 4.04zm-2.88-.79c0-1.26-.07-2.12-.21-2.59s-.35-.82-.64-1.07c-.16-.14-.38-.21-.66-.21-.41 0-.74.2-1 .6-.46.7-.69 1.65-.69 2.86v.41h3.2z"/><use xlink:href="#F" x="58.13"/><path d="M230.55 173.49V179h-.46c-.34-1.44-.98-2.54-1.92-3.3s-2-1.15-3.19-1.15c-.99 0-1.9.29-2.73.86s-1.43 1.32-1.82 2.24c-.49 1.18-.74 2.49-.74 3.94 0 1.42.18 2.72.54 3.88s.92 2.05 1.69 2.65 1.76.9 2.98.9c1 0 1.92-.22 2.75-.66s1.71-1.19 2.63-2.26v1.37c-.89.93-1.82 1.6-2.78 2.02s-2.09.63-3.38.63c-1.7 0-3.2-.34-4.52-1.02s-2.33-1.66-3.05-2.93a8.12 8.12 0 0 1-1.07-4.07c0-1.52.4-2.95 1.19-4.31s1.86-2.41 3.21-3.16 2.78-1.12 4.29-1.12c1.12 0 2.3.24 3.54.73.72.28 1.18.42 1.37.42.25 0 .47-.09.65-.28s.3-.47.36-.87h.46zm6.97 14.64c-1.34 1.18-2.54 1.77-3.6 1.77-.62 0-1.14-.21-1.56-.62s-.62-.92-.62-1.54c0-.84.36-1.59 1.08-2.26s2.29-1.56 4.7-2.67v-1.1c0-.83-.04-1.35-.13-1.56s-.26-.4-.51-.56-.53-.24-.84-.24c-.51 0-.93.11-1.25.34-.2.14-.3.3-.3.49 0 .16.11.37.33.61.3.34.45.66.45.97a1.29 1.29 0 0 1-.43.98c-.29.27-.66.4-1.12.4-.49 0-.9-.15-1.24-.45s-.5-.64-.5-1.04c0-.56.22-1.1.67-1.61s1.07-.9 1.86-1.18 1.62-.41 2.48-.41c1.04 0 1.86.22 2.47.66s1 .92 1.18 1.44c.11.33.16 1.08.16 2.26v4.25c0 .5.02.81.06.94a.6.6 0 0 0 .18.29c.08.07.17.09.27.09.2 0 .41-.14.62-.43l.35.28c-.39.58-.79 1-1.21 1.26s-.89.39-1.42.39c-.62 0-1.11-.15-1.46-.44s-.59-.72-.67-1.31zm0-.86v-3.67c-.95.55-1.65 1.15-2.11 1.78-.3.42-.46.85-.46 1.28a1.33 1.33 0 0 0 .39.95c.2.21.47.32.82.32.39 0 .84-.22 1.36-.66zm10.26-8.48v2.48c.73-1.13 1.36-1.88 1.91-2.26s1.07-.56 1.58-.56c.44 0 .79.13 1.05.4s.39.65.39 1.14c0 .52-.13.93-.38 1.22s-.56.43-.92.43a1.59 1.59 0 0 1-1.08-.4l-.54-.45c-.08-.05-.17-.07-.27-.07-.23 0-.44.09-.64.26-.32.27-.56.64-.73 1.14-.25.76-.38 1.59-.38 2.51v2.52l.01.66c0 .45.03.73.08.86.09.21.23.37.42.46s.49.16.93.18v.42h-5.92v-.42c.48-.04.8-.17.97-.39s.25-.81.25-1.76v-6.06c0-.62-.03-1.02-.09-1.2-.08-.22-.19-.38-.34-.48s-.41-.17-.79-.21v-.43h4.49zm15.15 5.09h-6.01c.07 1.45.46 2.6 1.16 3.45.54.65 1.19.97 1.95.97.47 0 .89-.13 1.28-.39s.79-.73 1.23-1.41l.4.26c-.59 1.21-1.25 2.07-1.97 2.57s-1.55.76-2.5.76c-1.62 0-2.86-.62-3.69-1.88-.67-1.01-1.01-2.26-1.01-3.75 0-1.83.49-3.28 1.48-4.37.99-1.08 2.15-1.62 3.47-1.62 1.11 0 2.07.46 2.89 1.37.81.9 1.25 2.25 1.32 4.04zm-2.89-.79c0-1.26-.07-2.12-.21-2.59s-.35-.82-.64-1.07c-.16-.14-.38-.21-.66-.21-.41 0-.74.2-1 .6-.46.7-.69 1.65-.69 2.86v.41h3.2z"/><defs ><path id="B" d="M166.97 112.35v1.56c.62-.67 1.21-1.16 1.78-1.46.57-.31 1.18-.46 1.83-.46.78 0 1.43.22 1.95.66a3.06 3.06 0 0 1 1.03 1.61c.14.49.21 1.43.21 2.82v4.69c0 .93.08 1.51.25 1.74.17.22.52.37 1.06.43v.46h-6.1v-.46c.46-.06.78-.25.98-.57.14-.21.21-.75.21-1.6v-5.36c0-.99-.04-1.61-.12-1.87s-.21-.46-.4-.59c-.18-.15-.38-.22-.61-.22-.74 0-1.43.53-2.06 1.58v6.46c0 .9.08 1.47.25 1.71s.49.39.94.45v.46h-6.1v-.46c.51-.05.87-.21 1.08-.49.15-.19.22-.75.22-1.68v-6.81c0-.91-.09-1.48-.26-1.7-.16-.22-.51-.37-1.04-.44v-.48h4.9v.02z"/><path id="C" d="M200.43 24.21s-.35.59-.35.7c0 .22.16.39.36.39s.36-.18.36-.39c-.01-.01-.37-.7-.37-.7h0z"/><path id="D" d="M176.48 32.44s.35.59.35.7c0 .22-.16.39-.36.39s-.36-.17-.36-.39c.01-.01.37-.7.37-.7h0z"/><path id="E" d="M146.82 149.67v4.01h2.6v1.16h-2.6v6.76c0 .63.03 1.04.09 1.22a.94.94 0 0 0 .31.45c.15.12.29.17.41.17.51 0 .99-.39 1.44-1.16l.35.26c-.63 1.5-1.66 2.25-3.08 2.25-.7 0-1.28-.19-1.76-.58s-.79-.82-.92-1.29c-.08-.27-.12-.98-.12-2.16v-5.92h-1.43v-.41c.98-.7 1.82-1.43 2.51-2.19.69-.77 1.29-1.62 1.81-2.57h.39z"/><path id="F" d="M148.99 173.86v12.61l.07 1.51c.06.26.18.45.36.57s.48.2.92.23v.39l-4.63.9v-1.73c-.55.67-1.05 1.13-1.48 1.37s-.92.36-1.47.36c-1.4 0-2.5-.62-3.32-1.88-.66-1.02-.98-2.26-.98-3.74 0-1.18.2-2.24.61-3.17s.96-1.64 1.67-2.12 1.47-.71 2.28-.71c.52 0 .99.1 1.39.3s.84.56 1.3 1.07v-3.3c0-.84-.04-1.34-.11-1.51-.09-.23-.23-.39-.42-.5s-.54-.16-1.05-.16v-.49h4.86zm-3.28 7.43c-.58-1.11-1.29-1.66-2.12-1.66-.29 0-.53.08-.71.23-.29.24-.53.67-.71 1.28s-.28 1.54-.28 2.8c0 1.38.1 2.41.3 3.07s.48 1.14.83 1.44c.18.15.43.22.74.22.69 0 1.34-.54 1.95-1.62v-5.76z"/></defs></svg>